<svg width="201" height="22" viewBox="0 0 201 22" fill="none" xmlns="http://www.w3.org/2000/svg">
<path d="M40.7013 17.6586C38.9364 17.6586 37.3207 17.3665 35.854 16.7822C34.3992 16.1859 33.2485 15.393 32.4018 14.4032C31.5671 13.4016 31.1498 12.3165 31.1498 11.1479C31.1498 9.97927 31.5671 8.89415 32.4018 7.89249C33.2485 6.89084 34.3992 6.09786 35.854 5.51356C37.3207 4.91734 38.9364 4.61923 40.7013 4.61923C42.3111 4.61923 43.8016 4.87561 45.1729 5.38836C46.5562 5.88918 47.689 6.56888 48.5714 7.42744C49.4657 8.286 50.0143 9.22803 50.217 10.2535H47.9275C47.6055 9.13263 46.7589 8.29792 45.3876 7.7494C44.0282 7.18895 42.4661 6.90872 40.7013 6.90872C39.473 6.90872 38.3044 7.0697 37.1955 7.39167C36.0865 7.71362 35.1802 8.19656 34.4767 8.84049C33.7851 9.47248 33.4393 10.2416 33.4393 11.1479C33.4393 12.0541 33.7851 12.8233 34.4767 13.4552C35.1802 14.0872 36.0865 14.5642 37.1955 14.8862C38.3044 15.2081 39.473 15.3691 40.7013 15.3691C42.4661 15.3691 44.0282 15.0949 45.3876 14.5463C46.747 13.9978 47.5936 13.1691 47.9275 12.0601H50.217C50.0143 13.0856 49.4657 14.0276 48.5714 14.8862C47.689 15.7328 46.5562 16.4065 45.1729 16.9074C43.8016 17.4082 42.3111 17.6586 40.7013 17.6586ZM59.6378 17.6765C58.1711 17.6765 56.8117 17.4619 55.5596 17.0326C54.3195 16.5914 53.3357 16.0071 52.6083 15.2797C51.8809 14.5523 51.5173 13.7712 51.5173 12.9365C51.5173 12.0899 51.8809 11.3029 52.6083 10.5755C53.3357 9.83618 54.3195 9.25188 55.5596 8.8226C56.8117 8.38139 58.1711 8.16079 59.6378 8.16079C61.1045 8.16079 62.4579 8.38139 63.6981 8.8226C64.9382 9.25188 65.922 9.83618 66.6494 10.5755C67.3768 11.3029 67.7405 12.0899 67.7405 12.9365C67.7405 13.7712 67.3768 14.5523 66.6494 15.2797C65.922 16.0071 64.9323 16.5914 63.6802 17.0326C62.44 17.4619 61.0926 17.6765 59.6378 17.6765ZM53.8425 12.8829C53.8425 13.4195 54.1347 13.8905 54.719 14.2959C55.3033 14.7014 56.0426 15.0114 56.9369 15.226C57.8432 15.4407 58.7435 15.548 59.6378 15.548C60.5083 15.548 61.3907 15.4466 62.285 15.2439C63.1913 15.0293 63.9366 14.7252 64.5209 14.3317C65.1171 13.9263 65.4152 13.4552 65.4152 12.9186C65.4152 12.394 65.1171 11.9349 64.5209 11.5414C63.9366 11.1359 63.1913 10.8259 62.285 10.6113C61.3907 10.3966 60.5083 10.2893 59.6378 10.2893C58.7554 10.2893 57.8611 10.3966 56.9548 10.6113C56.0605 10.814 55.3152 11.1121 54.719 11.5056C54.1347 11.8991 53.8425 12.3582 53.8425 12.8829ZM69.1615 8.46487H71.3079L71.4867 9.52018C72.1307 9.07897 72.8521 8.75105 73.651 8.53641C74.4619 8.30985 75.3085 8.19656 76.1909 8.19656C77.4311 8.19656 78.6235 8.39928 79.7683 8.80471C80.925 9.21014 81.8551 9.77059 82.5586 10.4861C83.2741 11.1896 83.6318 11.9826 83.6318 12.865V17.4082H81.3065V13.2764C81.235 12.6444 80.9428 12.1078 80.4301 11.6666C79.9293 11.2254 79.2973 10.8915 78.5341 10.6649C77.7709 10.4384 76.972 10.3251 76.1373 10.3251C75.3145 10.3251 74.5454 10.4324 73.8299 10.647C73.1264 10.8617 72.5599 11.1777 72.1307 11.595C71.7014 12.0124 71.4867 12.5132 71.4867 13.0975V17.4082H69.1615V8.46487ZM85.1267 8.46487H87.2731L87.452 9.52018C88.0959 9.07897 88.8173 8.75105 89.6163 8.53641C90.4272 8.30985 91.2738 8.19656 92.1562 8.19656C93.3963 8.19656 94.5888 8.39928 95.7335 8.80471C96.8902 9.21014 97.8203 9.77059 98.5239 10.4861C99.2393 11.1896 99.5971 11.9826 99.5971 12.865V17.4082H97.2718V13.2764C97.2002 12.6444 96.9081 12.1078 96.3953 11.6666C95.8945 11.2254 95.2625 10.8915 94.4994 10.6649C93.7362 10.4384 92.9372 10.3251 92.1025 10.3251C91.2797 10.3251 90.5106 10.4324 89.7952 10.647C89.0916 10.8617 88.5252 11.1777 88.0959 11.595C87.6666 12.0124 87.452 12.5132 87.452 13.0975V17.4082H85.1267V8.46487ZM108.175 17.6765C106.875 17.6765 105.671 17.4619 104.562 17.0326C103.465 16.6033 102.594 16.025 101.951 15.2976C101.307 14.5702 100.985 13.7891 100.985 12.9544C100.985 12.1078 101.307 11.3208 101.951 10.5934C102.594 9.86599 103.465 9.28765 104.562 8.85837C105.671 8.41717 106.875 8.19656 108.175 8.19656C109.475 8.19656 110.673 8.4112 111.77 8.84049C112.867 9.26977 113.738 9.8481 114.382 10.5755C115.038 11.3029 115.366 12.0899 115.366 12.9365C115.366 13.2704 115.342 13.5566 115.294 13.7951L103.56 13.813C103.894 14.3854 104.514 14.8266 105.421 15.1366C106.327 15.4466 107.245 15.6016 108.175 15.6016C109.093 15.6016 109.934 15.5301 110.697 15.387C111.46 15.2439 112.146 14.9995 112.754 14.6537L114.471 15.9236C113.899 16.4841 113.028 16.9193 111.86 17.2293C110.691 17.5274 109.463 17.6765 108.175 17.6765ZM112.861 12.0959C112.539 11.5116 111.919 11.0644 111.001 10.7544C110.095 10.4324 109.153 10.2714 108.175 10.2714C107.233 10.2714 106.309 10.4324 105.403 10.7544C104.496 11.0644 103.876 11.5056 103.542 12.078L112.861 12.0959ZM124.952 17.6765C123.485 17.6765 122.125 17.4619 120.873 17.0326C119.633 16.5914 118.644 16.0071 117.904 15.2797C117.177 14.5523 116.813 13.7712 116.813 12.9365C116.813 12.0899 117.177 11.3029 117.904 10.5755C118.644 9.83618 119.633 9.25188 120.873 8.8226C122.125 8.38139 123.485 8.16079 124.952 8.16079C126.239 8.16079 127.45 8.3337 128.583 8.67951C129.715 9.02531 130.663 9.49633 131.427 10.0926C132.19 10.6888 132.679 11.3387 132.893 12.0422H130.514C130.192 11.4579 129.501 11.0227 128.439 10.7365C127.39 10.4384 126.227 10.2893 124.952 10.2893C124.045 10.2893 123.145 10.3966 122.251 10.6113C121.368 10.8259 120.641 11.1359 120.068 11.5414C119.496 11.9349 119.21 12.394 119.21 12.9186C119.21 13.4433 119.496 13.9084 120.068 14.3138C120.641 14.7073 121.368 15.0114 122.251 15.226C123.145 15.4407 124.045 15.548 124.952 15.548C126.216 15.548 127.366 15.4049 128.404 15.1187C129.453 14.8206 130.157 14.3794 130.514 13.7951H132.911C132.696 14.4986 132.208 15.1485 131.444 15.7447C130.681 16.329 129.727 16.8001 128.583 17.1578C127.45 17.5036 126.239 17.6765 124.952 17.6765ZM153.887 17.6765C152.588 17.6765 151.383 17.4619 150.274 17.0326C149.177 16.6033 148.307 16.025 147.663 15.2976C147.019 14.5702 146.697 13.7891 146.697 12.9544C146.697 12.1078 147.019 11.3208 147.663 10.5934C148.307 9.86599 149.177 9.28765 150.274 8.85837C151.383 8.41717 152.588 8.19656 153.887 8.19656C155.187 8.19656 156.386 8.4112 157.483 8.84049C158.58 9.26977 159.45 9.8481 160.094 10.5755C160.75 11.3029 161.078 12.0899 161.078 12.9365C161.078 13.2704 161.054 13.5566 161.006 13.7951L149.273 13.813C149.607 14.3854 150.227 14.8266 151.133 15.1366C152.039 15.4466 152.957 15.6016 153.887 15.6016C154.806 15.6016 155.646 15.5301 156.409 15.387C157.173 15.2439 157.858 14.9995 158.466 14.6537L160.184 15.9236C159.611 16.4841 158.741 16.9193 157.572 17.2293C156.404 17.5274 155.175 17.6765 153.887 17.6765ZM158.574 12.0959C158.252 11.5116 157.632 11.0644 156.714 10.7544C155.807 10.4324 154.865 10.2714 153.887 10.2714C152.945 10.2714 152.021 10.4324 151.115 10.7544C150.209 11.0644 149.589 11.5056 149.255 12.078L158.574 12.0959ZM169.662 17.6765C168.351 17.6765 167.14 17.4619 166.031 17.0326C164.934 16.5914 164.064 16.0071 163.42 15.2797C162.776 14.5523 162.454 13.7712 162.454 12.9365C162.454 12.0899 162.776 11.3029 163.42 10.5755C164.064 9.83618 164.934 9.25188 166.031 8.8226C167.14 8.38139 168.351 8.16079 169.662 8.16079C170.604 8.16079 171.499 8.28004 172.345 8.51853C173.192 8.74509 173.943 9.06705 174.599 9.48441L174.76 8.46487H176.853V17.4082H174.76L174.617 16.3529C173.949 16.7702 173.192 17.0982 172.345 17.3367C171.499 17.5632 170.604 17.6765 169.662 17.6765ZM164.743 12.9186C164.743 13.4075 164.97 13.8547 165.423 14.2601C165.876 14.6537 166.478 14.9697 167.23 15.2081C167.981 15.4347 168.792 15.548 169.662 15.548C170.533 15.548 171.344 15.4347 172.095 15.2081C172.846 14.9697 173.448 14.6537 173.901 14.2601C174.354 13.8547 174.581 13.4075 174.581 12.9186C174.581 12.4774 174.349 12.0541 173.883 11.6487C173.43 11.2433 172.822 10.9153 172.059 10.6649C171.308 10.4145 170.509 10.2893 169.662 10.2893C168.804 10.2893 167.993 10.4145 167.23 10.6649C166.478 10.9153 165.876 11.2433 165.423 11.6487C164.97 12.0541 164.743 12.4774 164.743 12.9186ZM178.255 8.46487H180.365L180.544 9.43075C181.606 8.61988 182.84 8.21445 184.247 8.21445C185.189 8.21445 186.083 8.39332 186.93 8.75105C187.788 9.09686 188.468 9.54403 188.969 10.0926C189.494 9.49633 190.179 9.03128 191.026 8.69739C191.873 8.36351 192.773 8.19656 193.727 8.19656C194.717 8.19656 195.647 8.4112 196.517 8.84049C197.388 9.26977 198.085 9.84214 198.61 10.5576C199.135 11.2731 199.397 12.0422 199.397 12.865V17.4082H197.107V13.1691C197.048 12.5371 196.845 12.0064 196.499 11.5771C196.153 11.1359 195.718 10.808 195.194 10.5934C194.681 10.3787 194.132 10.2714 193.548 10.2714C192.964 10.2714 192.409 10.3787 191.884 10.5934C191.36 10.808 190.936 11.13 190.615 11.5593C190.304 11.9766 190.149 12.4715 190.149 13.0439V17.4082H187.86V13.0439C187.788 12.1614 187.395 11.4818 186.679 11.0048C185.964 10.5278 185.123 10.2893 184.157 10.2893C183.537 10.2893 182.947 10.3966 182.387 10.6113C181.838 10.8259 181.391 11.1419 181.045 11.5593C180.711 11.9647 180.544 12.4536 180.544 13.026V17.4082H178.255V8.46487Z" fill="white"/>
<path d="M139.785 17.4082C139.332 17.4082 138.861 17.289 138.372 17.0505C137.895 16.8001 137.496 16.4781 137.174 16.0846C136.852 15.6792 136.691 15.2499 136.691 14.7967V10.5934H133.99V8.46487H136.691V4.88753H139.016V8.46487H145.58V10.5934H139.016V14.0276C139.016 14.3973 139.087 14.7014 139.231 14.9398C139.374 15.1783 139.648 15.2976 140.053 15.2976L142.826 15.2797V17.3903L139.785 17.4082Z" fill="url(#paint0_linear_225_3486)"/>
<path d="M16.4224 10.9825C16.3342 8.53675 14.7354 7.79598 13.2921 7.79598C12.1386 7.8639 11.2927 8.68946 11.0053 9.05186C8.15609 11.826 5.9255 9.37051 5.68182 9.20181C5.43814 9.03311 4.76334 7.79598 3.11383 7.79598C1.46431 7.79598 0.0772235 9.20181 0.0022456 10.9825C-0.0727323 12.7633 1.74548 13.9254 3.11383 13.9254C4.20851 13.9254 5.18197 13.0882 5.53187 12.6695C7.46255 10.4577 9.95556 11.4324 11.0053 12.6695C11.845 13.6592 12.8797 13.9192 13.2921 13.9254C15.7405 13.8803 16.4224 11.9012 16.4224 10.9825Z" fill="url(#paint1_linear_225_3486)"/>
<path d="M21.6148 16.1987C21.6148 13.8011 19.9278 13.0121 18.4845 13.0121C17.2842 13.0886 16.4851 13.9056 16.1977 14.268C13.3485 17.0422 11.1179 14.5867 10.8743 14.418C10.6306 14.2493 9.95578 13.0121 8.30626 13.0121C6.65675 13.0121 5.26966 14.418 5.19468 16.1987C5.1197 17.9794 6.93791 19.1416 8.30626 19.1416C9.40094 19.1416 10.3744 18.3043 10.7243 17.8857C12.655 15.6739 15.148 16.6486 16.1977 17.8857C17.0374 18.8754 18.0721 19.1353 18.4845 19.1416C20.8688 19.0816 21.5648 17.1547 21.6148 16.1987Z" fill="url(#paint2_linear_225_3486)"/>
<path d="M18.4845 2.67873C19.9361 2.59958 21.6148 3.47036 21.6148 5.86529C21.5648 6.82126 20.8688 8.74819 18.4845 8.80818C18.0362 8.81946 17.0374 8.54201 16.1977 7.5523C15.148 6.31516 12.655 5.34045 10.7243 7.5523C10.3744 7.97092 9.40094 8.80818 8.30626 8.80818C6.93792 8.80818 5.1197 7.64602 5.19468 5.86529C5.26966 4.08457 6.65675 2.67873 8.30626 2.67873C9.95578 2.67873 10.6306 3.91587 10.8743 4.08457C11.1179 4.25327 13.3485 6.7088 16.1977 3.93461C16.4851 3.57222 17.3448 2.81369 18.4845 2.67873Z" fill="url(#paint3_linear_225_3486)"/>
<path d="M23.6964 7.58679C24.7255 7.5 26.8629 8.29134 26.8629 10.9512C26.7837 11.9012 25.9763 13.8407 23.6964 13.8407C22.7992 13.8407 20.8465 13.2469 20.609 10.9512C20.543 9.9221 21.0444 7.81045 23.6964 7.58679Z" fill="url(#paint4_linear_225_3486)"/>
<defs>
<linearGradient id="paint0_linear_225_3486" x1="137.851" y1="10.9964" x2="145.913" y2="10.9964" gradientUnits="userSpaceOnUse">
<stop stop-color="#55C6F7"/>
<stop offset="1" stop-color="#2AF8BA"/>
</linearGradient>
<linearGradient id="paint1_linear_225_3486" x1="-3.49349" y1="10.8884" x2="26.7421" y2="10.9793" gradientUnits="userSpaceOnUse">
<stop stop-color="#55C6F7"/>
<stop offset="1" stop-color="#2AF8BA"/>
</linearGradient>
<linearGradient id="paint2_linear_225_3486" x1="-3.49349" y1="10.8884" x2="26.7421" y2="10.9793" gradientUnits="userSpaceOnUse">
<stop stop-color="#55C6F7"/>
<stop offset="1" stop-color="#2AF8BA"/>
</linearGradient>
<linearGradient id="paint3_linear_225_3486" x1="-3.49349" y1="10.8884" x2="26.7421" y2="10.9793" gradientUnits="userSpaceOnUse">
<stop stop-color="#55C6F7"/>
<stop offset="1" stop-color="#2AF8BA"/>
</linearGradient>
<linearGradient id="paint4_linear_225_3486" x1="-3.49349" y1="10.8884" x2="26.7421" y2="10.9793" gradientUnits="userSpaceOnUse">
<stop stop-color="#55C6F7"/>
<stop offset="1" stop-color="#2AF8BA"/>
</linearGradient>
</defs>
</svg>
