<svg width="46" height="36" viewBox="0 0 46 36" fill="none" xmlns="http://www.w3.org/2000/svg">
<path d="M23.5031 1.37068L23.504 1.37193L33.6964 15.9344L34.5093 17.0958L35.5116 16.0932L43.832 7.76947L43.8329 7.76857C43.8923 7.70902 43.9681 7.66846 44.0505 7.65201C44.133 7.63556 44.2185 7.64397 44.2962 7.67617C44.3739 7.70838 44.4403 7.76293 44.4869 7.8329C44.5336 7.90288 44.5584 7.98513 44.5583 8.06923V8.07136V29.05C44.5583 30.4466 44.0035 31.786 43.0159 32.7736C42.0284 33.7611 40.689 34.3159 39.2924 34.3159H7.01748C5.62088 34.3159 4.28147 33.7611 3.29393 32.7736C2.30638 31.786 1.75158 30.4466 1.75158 29.05L1.75158 8.07136L1.75158 8.06923C1.75143 7.98513 1.77625 7.90288 1.8229 7.8329C1.86956 7.76293 1.93594 7.70838 2.01363 7.67617C2.09132 7.64397 2.17682 7.63556 2.2593 7.65201C2.34178 7.66846 2.41752 7.70902 2.47691 7.76857L2.47781 7.76947L10.7983 16.0932L11.8005 17.0958L12.6134 15.9344L22.8058 1.37193L22.8067 1.37068C22.8458 1.31461 22.8979 1.26882 22.9585 1.2372C23.0192 1.20559 23.0865 1.18907 23.1549 1.18907C23.2233 1.18907 23.2907 1.20559 23.3513 1.2372C23.4119 1.26882 23.464 1.31461 23.5031 1.37068Z" stroke="url(#paint0_linear_97_1111)" stroke-width="2.37815"/>
<defs>
<linearGradient id="paint0_linear_97_1111" x1="0.5625" y1="17.5397" x2="48.9814" y2="17.5397" gradientUnits="userSpaceOnUse">
<stop stop-color="#55C6F7"/>
<stop offset="1" stop-color="#2AF8BA"/>
</linearGradient>
</defs>
</svg>
