<?xml version="1.0" standalone="no"?>
<!DOCTYPE svg PUBLIC "-//W3C//DTD SVG 20010904//EN"
 "http://www.w3.org/TR/2001/REC-SVG-20010904/DTD/svg10.dtd">
<svg version="1.0" xmlns="http://www.w3.org/2000/svg"
 width="68.000000pt" height="68.000000pt" viewBox="0 0 68.000000 68.000000"
 preserveAspectRatio="xMidYMid meet">
<metadata>
Created by potrace 1.10, written by Peter Selinger 2001-2011
</metadata>
<g transform="translate(0.000000,68.000000) scale(0.100000,-0.100000)"
fill="#000000" stroke="none">
<path d="M202 514 c-13 -9 -34 -33 -48 -55 -13 -21 -30 -39 -37 -39 -7 0 -25
-13 -40 -28 -38 -40 -37 -85 4 -123 17 -16 38 -29 46 -29 8 0 20 -15 28 -34
28 -66 90 -84 153 -46 41 25 47 25 83 -1 55 -39 115 -24 143 36 9 19 30 42 46
50 36 18 70 61 70 88 0 31 -39 82 -72 95 -15 5 -32 21 -37 35 -12 30 -57 67
-83 67 -10 0 -40 -11 -65 -25 l-46 -24 -42 24 c-49 29 -72 31 -103 9z m88 -39
c15 -15 34 -25 52 -25 16 0 46 11 66 25 43 29 59 31 84 8 24 -21 23 -68 -2
-93 -26 -26 -39 -25 -80 5 -40 30 -86 32 -114 6 -37 -33 -63 -35 -91 -7 -31
31 -32 50 0 81 31 32 55 32 85 0z m-104 -100 c42 -39 60 -40 111 -6 26 17 50
31 55 31 17 0 58 -49 58 -70 0 -25 -34 -60 -59 -60 -11 0 -33 11 -49 25 -17
14 -42 25 -57 25 -15 0 -40 -11 -57 -25 -34 -29 -55 -31 -86 -9 -39 27 -24 88
28 107 25 9 28 8 56 -18z m414 5 c27 -27 25 -56 -5 -85 -31 -31 -49 -31 -80 0
-30 29 -31 45 -4 79 25 31 61 34 89 6z m-306 -115 c18 -14 42 -25 53 -25 10 0
34 11 53 25 39 29 66 32 92 8 38 -34 11 -103 -40 -103 -14 0 -36 10 -49 22
-12 12 -36 21 -52 21 -16 0 -41 -9 -56 -21 -36 -29 -79 -28 -99 0 -21 29 -20
40 5 72 26 33 51 33 93 1z"/>
</g>
</svg>
