<svg width="309" height="171" viewBox="0 0 309 171" fill="none" xmlns="http://www.w3.org/2000/svg">
<path d="M307.779 4.5262C308.593 4.68053 309.128 5.46546 308.974 6.27938C308.819 7.09331 308.034 7.62801 307.221 7.47368L307.779 4.5262ZM8.1033 170.372C7.34482 170.706 6.45987 170.361 6.12668 169.602L0.697052 157.242C0.363861 156.484 0.708618 155.599 1.4671 155.266C2.22556 154.933 3.11053 155.277 3.44373 156.036L8.27005 167.023L19.2567 162.196C20.0152 161.863 20.9001 162.208 21.2333 162.966C21.5665 163.725 21.2217 164.61 20.4633 164.943L8.1033 170.372ZM307.221 7.47368C270.539 0.518265 211.7 0.51354 154.161 22.5261C96.6732 44.5189 40.4758 88.4856 8.89767 169.544L6.10233 168.455C38.0242 86.5143 94.9101 41.9814 153.089 19.7242C211.216 -2.51324 270.628 -2.51839 307.779 4.5262L307.221 7.47368Z" fill="url(#paint0_linear_225_3677)" fill-opacity="0.47"/>
<defs>
<linearGradient id="paint0_linear_225_3677" x1="305.5" y1="96.7089" x2="56.3592" y2="96.7089" gradientUnits="userSpaceOnUse">
<stop stop-color="#55C6F7"/>
<stop offset="1" stop-color="#2AF8BA"/>
</linearGradient>
</defs>
</svg>
