<svg width="245" height="165" viewBox="0 0 245 165" fill="none" xmlns="http://www.w3.org/2000/svg">
<path id="Vector 67" d="M1.72055 5.02708C0.906631 5.18141 0.371926 5.96634 0.52626 6.78026C0.680593 7.59419 1.46552 8.12889 2.27945 7.97456L1.72055 5.02708ZM233.499 164.618C234.117 165.171 235.065 165.119 235.618 164.501L244.622 154.443C245.175 153.826 245.122 152.878 244.505 152.325C243.888 151.772 242.94 151.825 242.387 152.442L234.383 161.383L225.442 153.379C224.825 152.826 223.877 152.879 223.324 153.496C222.772 154.113 222.824 155.061 223.441 155.614L233.499 164.618ZM2.27945 7.97456C39.0042 1.01094 94.5989 0.48332 142.032 21.4231C165.725 31.8825 187.358 47.6865 203.617 70.7038C219.874 93.7178 230.816 124.025 233.002 163.584L235.998 163.418C233.784 123.377 222.693 92.5088 206.067 68.9729C189.444 45.4401 167.346 29.3191 143.243 18.6786C95.0844 -2.58168 38.8291 -2.0093 1.72055 5.02708L2.27945 7.97456Z" fill="url(#paint0_linear_225_3676)" fill-opacity="0.47"/>
<defs>
<linearGradient id="paint0_linear_225_3676" x1="2" y1="81.8573" x2="251.141" y2="81.8573" gradientUnits="userSpaceOnUse">
<stop stop-color="#55C6F7"/>
<stop offset="1" stop-color="#2AF8BA"/>
</linearGradient>
</defs>
</svg>
