<svg width="28" height="22" viewBox="0 0 28 22" fill="none" xmlns="http://www.w3.org/2000/svg">
<path fill-rule="evenodd" clip-rule="evenodd" d="M0.118402 0.959772C0.236225 0.675596 0.435665 0.432736 0.691504 0.2619C0.947343 0.0910641 1.24809 -7.73651e-05 1.55573 4.92751e-08H17.1112C18.5411 2.79673e-08 19.9571 0.281647 21.2782 0.828862C22.5992 1.37608 23.7996 2.17814 24.8107 3.18926C25.8219 4.20038 26.6239 5.40075 27.1711 6.72185C27.7184 8.04294 28 9.45888 28 10.8888C28 12.3188 27.7184 13.7347 27.1711 15.0558C26.6239 16.3769 25.8219 17.5773 24.8107 18.5884C23.7996 19.5995 22.5992 20.4016 21.2782 20.9488C19.9571 21.496 18.5411 21.7776 17.1112 21.7776H3.11127C2.69871 21.7776 2.30306 21.6138 2.01133 21.322C1.71961 21.0303 1.55573 20.6346 1.55573 20.2221C1.55573 19.8095 1.71961 19.4139 2.01133 19.1222C2.30306 18.8304 2.69871 18.6665 3.11127 18.6665H17.1112C19.174 18.6665 21.1523 17.8471 22.6109 16.3885C24.0695 14.9299 24.8889 12.9516 24.8889 10.8888C24.8889 8.82604 24.0695 6.84774 22.6109 5.38913C21.1523 3.93053 19.174 3.11109 17.1112 3.11109H5.31081L8.09991 5.90018C8.38326 6.19356 8.54005 6.5865 8.53651 6.99436C8.53296 7.40222 8.36937 7.79237 8.08096 8.08078C7.79255 8.36919 7.4024 8.53278 6.99454 8.53633C6.58668 8.53987 6.19374 8.38308 5.90036 8.09972L0.455955 2.65532C0.238283 2.43778 0.0900258 2.16057 0.0299397 1.85876C-0.0301463 1.55694 0.000639463 1.24409 0.118402 0.959772Z" fill="#5C5C5C"/>
</svg>
