<svg width="18" height="13" viewBox="0 0 18 13" fill="none" xmlns="http://www.w3.org/2000/svg">
<path d="M8.99393 5.99414C8.09215 5.99414 7.2273 6.35237 6.58964 6.99003C5.95198 7.62769 5.59375 8.49254 5.59375 9.39432C5.59375 10.2961 5.95198 11.161 6.58964 11.7986C7.2273 12.4363 8.09215 12.7945 8.99393 12.7945C9.89572 12.7945 10.7606 12.4363 11.3982 11.7986C12.0359 11.161 12.3941 10.2961 12.3941 9.39432C12.3941 8.49254 12.0359 7.62769 11.3982 6.99003C10.7606 6.35237 9.89572 5.99414 8.99393 5.99414ZM7.29384 9.39432C7.29384 8.94343 7.47296 8.51101 7.79179 8.19218C8.11062 7.87335 8.54304 7.69423 8.99393 7.69423C9.44482 7.69423 9.87725 7.87335 10.1961 8.19218C10.5149 8.51101 10.694 8.94343 10.694 9.39432C10.694 9.84521 10.5149 10.2776 10.1961 10.5965C9.87725 10.9153 9.44482 11.0944 8.99393 11.0944C8.54304 11.0944 8.11062 10.9153 7.79179 10.5965C7.47296 10.2776 7.29384 9.84521 7.29384 9.39432Z" fill="#424242"/>
<path d="M17.9483 8.68456C17.9908 8.81154 18.0074 8.94576 17.9971 9.07927C17.9868 9.21279 17.9498 9.34287 17.8882 9.4618C17.8267 9.58074 17.7419 9.68611 17.6389 9.77166C17.5359 9.85722 17.4167 9.92122 17.2885 9.95987C17.1603 9.99852 17.0257 10.011 16.8925 9.99667C16.7594 9.9823 16.6305 9.94135 16.5135 9.87624C16.3964 9.81113 16.2937 9.72319 16.2113 9.61763C16.1289 9.51207 16.0685 9.39104 16.0338 9.26172C13.9472 2.2738 4.04851 2.27279 1.95993 9.25771C1.92249 9.38369 1.86061 9.50105 1.77782 9.60311C1.69502 9.70517 1.59294 9.78992 1.47739 9.85252C1.36184 9.91512 1.23509 9.95435 1.10439 9.96797C0.973675 9.9816 0.841562 9.96934 0.71559 9.9319C0.589619 9.89446 0.472254 9.83258 0.370197 9.74978C0.268141 9.66699 0.18339 9.5649 0.120787 9.44936C0.0581818 9.33381 0.0189496 9.20706 0.00532921 9.07635C-0.00829115 8.94564 0.0039693 8.81353 0.0414048 8.68756C0.40534 7.43603 1.02261 6.27265 1.8549 5.26962L0.579554 3.99327C0.397345 3.80461 0.296525 3.55194 0.298802 3.28967C0.301081 3.0274 0.406279 2.77652 0.591738 2.59106C0.777198 2.4056 1.02808 2.3004 1.29035 2.29813C1.55262 2.29585 1.80529 2.39667 1.99394 2.57888L3.3053 3.89024C4.01304 3.35658 4.79481 2.92897 5.62594 2.62089L5.26884 1.28552C5.23075 1.15744 5.2187 1.02302 5.23342 0.890199C5.24814 0.757382 5.28932 0.628858 5.35454 0.512221C5.41975 0.395584 5.50767 0.293197 5.61312 0.211103C5.71856 0.12901 5.83938 0.0688762 5.96845 0.034253C6.09751 -0.000370113 6.23221 -0.00878055 6.36458 0.00951761C6.49695 0.0278158 6.62432 0.0724544 6.73915 0.140793C6.85399 0.209131 6.95397 0.299786 7.03318 0.407405C7.1124 0.515024 7.16925 0.637425 7.20037 0.767381L7.56447 2.12475C8.51173 1.98471 9.48 1.98471 10.4273 2.12475L10.7914 0.767381C10.8225 0.637426 10.8793 0.515025 10.9586 0.407405C11.0378 0.299786 11.1377 0.209132 11.2526 0.140793C11.3674 0.0724548 11.4948 0.0278162 11.6272 0.00951807C11.7595 -0.00878007 11.8942 -0.000369606 12.0233 0.0342536C12.1524 0.0688767 12.2732 0.129011 12.3786 0.211104C12.4841 0.293197 12.572 0.395585 12.6372 0.512222C12.7024 0.628859 12.7436 0.757383 12.7583 0.8902C12.773 1.02302 12.761 1.15744 12.7229 1.28552L12.3658 2.62089C13.197 2.9293 13.9787 3.35725 14.6864 3.89124L15.9968 2.57888C16.1844 2.39105 16.4388 2.28543 16.7043 2.28524C16.9697 2.28506 17.2244 2.39032 17.4122 2.57788C17.6 2.76544 17.7056 3.01993 17.7058 3.28537C17.706 3.5508 17.6007 3.80544 17.4132 3.99327L16.1378 5.26862C16.922 6.20488 17.5482 7.34319 17.9503 8.68356" fill="#424242"/>
</svg>
