<svg width="472" height="37" viewBox="0 0 472 37" fill="none" xmlns="http://www.w3.org/2000/svg">
<path d="M27.5 36.7C22.5667 36.7 18.05 35.8833 13.95 34.25C9.88333 32.5833 6.66667 30.3667 4.3 27.6C1.96667 24.8 0.8 21.7667 0.8 18.5C0.8 15.2333 1.96667 12.2 4.3 9.4C6.66667 6.6 9.88333 4.38333 13.95 2.75C18.05 1.08333 22.5667 0.249998 27.5 0.249998C32 0.249998 36.1667 0.966665 40 2.4C43.8667 3.8 47.0333 5.7 49.5 8.1C52 10.5 53.5333 13.1333 54.1 16H47.7C46.8 12.8667 44.4333 10.5333 40.6 9C36.8 7.43333 32.4333 6.65 27.5 6.65C24.0667 6.65 20.8 7.1 17.7 8C14.6 8.9 12.0667 10.25 10.1 12.05C8.16667 13.8167 7.2 15.9667 7.2 18.5C7.2 21.0333 8.16667 23.1833 10.1 24.95C12.0667 26.7167 14.6 28.05 17.7 28.95C20.8 29.85 24.0667 30.3 27.5 30.3C32.4333 30.3 36.8 29.5333 40.6 28C44.4 26.4667 46.7667 24.15 47.7 21.05H54.1C53.5333 23.9167 52 26.55 49.5 28.95C47.0333 31.3167 43.8667 33.2 40 34.6C36.1667 36 32 36.7 27.5 36.7ZM80.4348 36.75C76.3348 36.75 72.5348 36.15 69.0348 34.95C65.5681 33.7167 62.8181 32.0833 60.7848 30.05C58.7514 28.0167 57.7348 25.8333 57.7348 23.5C57.7348 21.1333 58.7514 18.9333 60.7848 16.9C62.8181 14.8333 65.5681 13.2 69.0348 12C72.5348 10.7667 76.3348 10.15 80.4348 10.15C84.5348 10.15 88.3181 10.7667 91.7848 12C95.2514 13.2 98.0014 14.8333 100.035 16.9C102.068 18.9333 103.085 21.1333 103.085 23.5C103.085 25.8333 102.068 28.0167 100.035 30.05C98.0014 32.0833 95.2348 33.7167 91.7348 34.95C88.2681 36.15 84.5014 36.75 80.4348 36.75ZM64.2348 23.35C64.2348 24.85 65.0514 26.1667 66.6848 27.3C68.3181 28.4333 70.3848 29.3 72.8848 29.9C75.4181 30.5 77.9348 30.8 80.4348 30.8C82.8681 30.8 85.3348 30.5167 87.8348 29.95C90.3681 29.35 92.4514 28.5 94.0848 27.4C95.7514 26.2667 96.5848 24.95 96.5848 23.45C96.5848 21.9833 95.7514 20.7 94.0848 19.6C92.4514 18.4667 90.3681 17.6 87.8348 17C85.3348 16.4 82.8681 16.1 80.4348 16.1C77.9681 16.1 75.4681 16.4 72.9348 17C70.4348 17.5667 68.3514 18.4 66.6848 19.5C65.0514 20.6 64.2348 21.8833 64.2348 23.35ZM107.057 11H113.057L113.557 13.95C115.357 12.7167 117.374 11.8 119.607 11.2C121.874 10.5667 124.24 10.25 126.707 10.25C130.174 10.25 133.507 10.8167 136.707 11.95C139.94 13.0833 142.54 14.65 144.507 16.65C146.507 18.6167 147.507 20.8333 147.507 23.3V36H141.007V24.45C140.807 22.6833 139.99 21.1833 138.557 19.95C137.157 18.7167 135.39 17.7833 133.257 17.15C131.124 16.5167 128.89 16.2 126.557 16.2C124.257 16.2 122.107 16.5 120.107 17.1C118.14 17.7 116.557 18.5833 115.357 19.75C114.157 20.9167 113.557 22.3167 113.557 23.95V36H107.057V11ZM151.686 11H157.686L158.186 13.95C159.986 12.7167 162.003 11.8 164.236 11.2C166.503 10.5667 168.869 10.25 171.336 10.25C174.803 10.25 178.136 10.8167 181.336 11.95C184.569 13.0833 187.169 14.65 189.136 16.65C191.136 18.6167 192.136 20.8333 192.136 23.3V36H185.636V24.45C185.436 22.6833 184.619 21.1833 183.186 19.95C181.786 18.7167 180.019 17.7833 177.886 17.15C175.753 16.5167 173.519 16.2 171.186 16.2C168.886 16.2 166.736 16.5 164.736 17.1C162.769 17.7 161.186 18.5833 159.986 19.75C158.786 20.9167 158.186 22.3167 158.186 23.95V36H151.686V11ZM216.115 36.75C212.482 36.75 209.115 36.15 206.015 34.95C202.948 33.75 200.515 32.1333 198.715 30.1C196.915 28.0667 196.015 25.8833 196.015 23.55C196.015 21.1833 196.915 18.9833 198.715 16.95C200.515 14.9167 202.948 13.3 206.015 12.1C209.115 10.8667 212.482 10.25 216.115 10.25C219.748 10.25 223.098 10.85 226.165 12.05C229.232 13.25 231.665 14.8667 233.465 16.9C235.298 18.9333 236.215 21.1333 236.215 23.5C236.215 24.4333 236.148 25.2333 236.015 25.9L203.215 25.95C204.148 27.55 205.882 28.7833 208.415 29.65C210.948 30.5167 213.515 30.95 216.115 30.95C218.682 30.95 221.032 30.75 223.165 30.35C225.298 29.95 227.215 29.2667 228.915 28.3L233.715 31.85C232.115 33.4167 229.682 34.6333 226.415 35.5C223.148 36.3333 219.715 36.75 216.115 36.75ZM229.215 21.15C228.315 19.5167 226.582 18.2667 224.015 17.4C221.482 16.5 218.848 16.05 216.115 16.05C213.482 16.05 210.898 16.5 208.365 17.4C205.832 18.2667 204.098 19.5 203.165 21.1L229.215 21.15ZM263.011 36.75C258.911 36.75 255.111 36.15 251.611 34.95C248.145 33.7167 245.378 32.0833 243.311 30.05C241.278 28.0167 240.261 25.8333 240.261 23.5C240.261 21.1333 241.278 18.9333 243.311 16.9C245.378 14.8333 248.145 13.2 251.611 12C255.111 10.7667 258.911 10.15 263.011 10.15C266.611 10.15 269.995 10.6333 273.161 11.6C276.328 12.5667 278.978 13.8833 281.111 15.55C283.245 17.2167 284.611 19.0333 285.211 21H278.561C277.661 19.3667 275.728 18.15 272.761 17.35C269.828 16.5167 266.578 16.1 263.011 16.1C260.478 16.1 257.961 16.4 255.461 17C252.995 17.6 250.961 18.4667 249.361 19.6C247.761 20.7 246.961 21.9833 246.961 23.45C246.961 24.9167 247.761 26.2167 249.361 27.35C250.961 28.45 252.995 29.3 255.461 29.9C257.961 30.5 260.478 30.8 263.011 30.8C266.545 30.8 269.761 30.4 272.661 29.6C275.595 28.7667 277.561 27.5333 278.561 25.9H285.261C284.661 27.8667 283.295 29.6833 281.161 31.35C279.028 32.9833 276.361 34.3 273.161 35.3C269.995 36.2667 266.611 36.75 263.011 36.75ZM343.898 36.75C340.265 36.75 336.898 36.15 333.798 34.95C330.731 33.75 328.298 32.1333 326.498 30.1C324.698 28.0667 323.798 25.8833 323.798 23.55C323.798 21.1833 324.698 18.9833 326.498 16.95C328.298 14.9167 330.731 13.3 333.798 12.1C336.898 10.8667 340.265 10.25 343.898 10.25C347.531 10.25 350.881 10.85 353.948 12.05C357.015 13.25 359.448 14.8667 361.248 16.9C363.081 18.9333 363.998 21.1333 363.998 23.5C363.998 24.4333 363.931 25.2333 363.798 25.9L330.998 25.95C331.931 27.55 333.665 28.7833 336.198 29.65C338.731 30.5167 341.298 30.95 343.898 30.95C346.465 30.95 348.815 30.75 350.948 30.35C353.081 29.95 354.998 29.2667 356.698 28.3L361.498 31.85C359.898 33.4167 357.465 34.6333 354.198 35.5C350.931 36.3333 347.498 36.75 343.898 36.75ZM356.998 21.15C356.098 19.5167 354.365 18.2667 351.798 17.4C349.265 16.5 346.631 16.05 343.898 16.05C341.265 16.05 338.681 16.5 336.148 17.4C333.615 18.2667 331.881 19.5 330.948 21.1L356.998 21.15ZM387.995 36.75C384.328 36.75 380.945 36.15 377.845 34.95C374.778 33.7167 372.345 32.0833 370.545 30.05C368.745 28.0167 367.845 25.8333 367.845 23.5C367.845 21.1333 368.745 18.9333 370.545 16.9C372.345 14.8333 374.778 13.2 377.845 12C380.945 10.7667 384.328 10.15 387.995 10.15C390.628 10.15 393.128 10.4833 395.495 11.15C397.861 11.7833 399.961 12.6833 401.795 13.85L402.245 11H408.095V36H402.245L401.845 33.05C399.978 34.2167 397.861 35.1333 395.495 35.8C393.128 36.4333 390.628 36.75 387.995 36.75ZM374.245 23.45C374.245 24.8167 374.878 26.0667 376.145 27.2C377.411 28.3 379.095 29.1833 381.195 29.85C383.295 30.4833 385.561 30.8 387.995 30.8C390.428 30.8 392.695 30.4833 394.795 29.85C396.895 29.1833 398.578 28.3 399.845 27.2C401.111 26.0667 401.745 24.8167 401.745 23.45C401.745 22.2167 401.095 21.0333 399.795 19.9C398.528 18.7667 396.828 17.85 394.695 17.15C392.595 16.45 390.361 16.1 387.995 16.1C385.595 16.1 383.328 16.45 381.195 17.15C379.095 17.85 377.411 18.7667 376.145 19.9C374.878 21.0333 374.245 22.2167 374.245 23.45ZM412.014 11H417.914L418.414 13.7C421.381 11.4333 424.831 10.3 428.764 10.3C431.397 10.3 433.897 10.8 436.264 11.8C438.664 12.7667 440.564 14.0167 441.964 15.55C443.431 13.8833 445.347 12.5833 447.714 11.65C450.081 10.7167 452.597 10.25 455.264 10.25C458.031 10.25 460.631 10.85 463.064 12.05C465.497 13.25 467.447 14.85 468.914 16.85C470.381 18.85 471.114 21 471.114 23.3V36H464.714V24.15C464.547 22.3833 463.981 20.9 463.014 19.7C462.047 18.4667 460.831 17.55 459.364 16.95C457.931 16.35 456.397 16.05 454.764 16.05C453.131 16.05 451.581 16.35 450.114 16.95C448.647 17.55 447.464 18.45 446.564 19.65C445.697 20.8167 445.264 22.2 445.264 23.8V36H438.864V23.8C438.664 21.3333 437.564 19.4333 435.564 18.1C433.564 16.7667 431.214 16.1 428.514 16.1C426.781 16.1 425.131 16.4 423.564 17C422.031 17.6 420.781 18.4833 419.814 19.65C418.881 20.7833 418.414 22.15 418.414 23.75V36H412.014V11Z" fill="white"/>
<path d="M304.477 36C303.21 36 301.893 35.6667 300.527 35C299.193 34.3 298.077 33.4 297.177 32.3C296.277 31.1667 295.827 29.9667 295.827 28.7V16.95H288.277V11H295.827V0.999998H302.327V11H320.677V16.95H302.327V26.55C302.327 27.5833 302.527 28.4333 302.927 29.1C303.327 29.7667 304.093 30.1 305.227 30.1L312.977 30.05V35.95L304.477 36Z" fill="url(#paint0_linear_119_1845)"/>
<defs>
<linearGradient id="paint0_linear_119_1845" x1="298.304" y1="17.2437" x2="320.782" y2="17.2437" gradientUnits="userSpaceOnUse">
<stop stop-color="#55C6F7"/>
<stop offset="1" stop-color="#2AF8BA"/>
</linearGradient>
</defs>
</svg>
