<svg width="153" height="153" viewBox="0 0 153 153" fill="none" xmlns="http://www.w3.org/2000/svg">
<circle cx="76.5" cy="76.5" r="72.5" stroke="url(#paint0_linear_119_1903)" stroke-width="8"/>
<path d="M59.6667 61.3333C59.6667 56.7362 61.4929 52.3274 64.7435 49.0768C67.9941 45.8262 72.4029 44 77 44C81.5971 44 86.0059 45.8262 89.2565 49.0768C92.5071 52.3274 94.3333 56.7362 94.3333 61.3333V70H95.4167C99.6027 70 103 73.3973 103 77.5833V101.417C103 103.428 102.201 105.357 100.779 106.779C99.3567 108.201 97.4279 109 95.4167 109H58.5833C56.5721 109 54.6433 108.201 53.2211 106.779C51.799 105.357 51 103.428 51 101.417V77.5833C51 73.3973 54.3973 70 58.5833 70H59.6667V61.3333ZM95.4167 76.5H58.5833C58.296 76.5 58.0205 76.6141 57.8173 76.8173C57.6141 77.0205 57.5 77.296 57.5 77.5833V101.417C57.5 102.015 57.9853 102.5 58.5833 102.5H95.4167C95.704 102.5 95.9795 102.386 96.1827 102.183C96.3859 101.98 96.5 101.704 96.5 101.417V77.5833C96.5 77.296 96.3859 77.0205 96.1827 76.8173C95.9795 76.6141 95.704 76.5 95.4167 76.5ZM87.8333 70V61.3333C87.8333 58.4602 86.692 55.7047 84.6603 53.673C82.6287 51.6414 79.8732 50.5 77 50.5C74.1268 50.5 71.3713 51.6414 69.3397 53.673C67.308 55.7047 66.1667 58.4602 66.1667 61.3333V70H87.8333Z" fill="url(#paint1_linear_119_1903)"/>
<defs>
<linearGradient id="paint0_linear_119_1903" x1="-5.62775e-09" y1="75.5828" x2="163.951" y2="75.5828" gradientUnits="userSpaceOnUse">
<stop stop-color="#55C6F7"/>
<stop offset="1" stop-color="#2AF8BA"/>
</linearGradient>
<linearGradient id="paint1_linear_119_1903" x1="51" y1="76.1103" x2="106.722" y2="76.1103" gradientUnits="userSpaceOnUse">
<stop stop-color="#55C6F7"/>
<stop offset="1" stop-color="#2AF8BA"/>
</linearGradient>
</defs>
</svg>
