<svg width="23" height="23" viewBox="0 0 23 23" fill="none" xmlns="http://www.w3.org/2000/svg">
<path d="M3.42933 0.564529L11.5 8.6352L19.5289 0.606346C19.7062 0.417579 19.9198 0.266572 20.157 0.16238C20.3941 0.0581879 20.6498 0.00295718 20.9088 0C21.4633 0 21.9952 0.220285 22.3873 0.612395C22.7794 1.0045 22.9997 1.53632 22.9997 2.09085C23.0045 2.34719 22.957 2.60182 22.8599 2.83912C22.7628 3.07642 22.6183 3.29138 22.4351 3.47081L14.3017 11.4997L22.4351 19.6331C22.7797 19.9702 22.9818 20.4267 22.9997 20.9085C22.9997 21.463 22.7794 21.9948 22.3873 22.3869C21.9952 22.779 21.4633 22.9993 20.9088 22.9993C20.6423 23.0104 20.3765 22.9659 20.1281 22.8687C19.8798 22.7715 19.6543 22.6238 19.4661 22.4348L11.5 14.3641L3.45024 22.4139C3.27357 22.5964 3.06252 22.742 2.82926 22.8425C2.596 22.943 2.34515 22.9963 2.09119 22.9993C1.53666 22.9993 1.00484 22.779 0.612735 22.3869C0.220625 21.9948 0.000340195 21.463 0.000340195 20.9085C-0.0045346 20.6521 0.0430257 20.3975 0.140103 20.1602C0.23718 19.9229 0.381726 19.7079 0.564869 19.5285L8.69826 11.4997L0.564869 3.36626C0.220266 3.02913 0.0181952 2.5726 0.000340195 2.09085C0.000340195 1.53632 0.220625 1.0045 0.612735 0.612395C1.00484 0.220285 1.53666 0 2.09119 0C2.59299 0.00627254 3.07389 0.209085 3.42933 0.564529Z" fill="#373737"/>
</svg>
