<svg width="43" height="43" viewBox="0 0 43 43" fill="none" xmlns="http://www.w3.org/2000/svg">
<path d="M40.8025 15.1869C43.3001 12.6893 42.1612 9.77208 40.8025 8.35344L34.8083 2.3592C32.2907 -0.138399 29.3935 1.00051 27.9749 2.3592L24.5781 5.77592H19.4031C15.6068 5.77592 13.4089 7.774 12.2899 10.0718L3.41846 18.9433V26.9356L1.99983 28.3342C-0.497774 30.8518 0.641132 33.749 1.99983 35.1677L7.99407 41.1619C9.07303 42.2409 10.2319 42.6405 11.3309 42.6405C12.7495 42.6405 14.0482 41.9412 14.8275 41.1619L20.2223 35.7471H27.3954C30.7922 35.7471 32.5105 33.6292 33.1299 31.5511C35.3877 30.9517 36.6266 29.2334 37.1261 27.555C40.2231 26.7558 41.382 23.8186 41.382 21.7606V15.7663H40.2031L40.8025 15.1869ZM37.3858 21.7606C37.3858 22.6597 37.0062 23.7586 35.3877 23.7586H33.3897V25.7567C33.3897 26.6559 33.01 27.7548 31.3916 27.7548H29.3935V29.7529C29.3935 30.652 29.0139 31.751 27.3954 31.751H18.5839L12.0302 38.3047C11.4108 38.8841 11.0511 38.5444 10.8313 38.3246L4.85708 32.3704C4.27764 31.751 4.61731 31.3913 4.8371 31.1715L7.41462 28.574V20.5817L11.4108 16.5855V19.7625C11.4108 22.1802 13.0092 25.7567 17.405 25.7567C21.8008 25.7567 23.3993 22.1802 23.3993 19.7625H37.3858V21.7606ZM37.9653 12.3496L34.5685 15.7663H19.4031V19.7625C19.4031 20.6616 19.0235 21.7606 17.405 21.7606C15.7866 21.7606 15.4069 20.6616 15.4069 19.7625V13.7682C15.4069 12.8491 15.7466 9.77208 19.4031 9.77208H26.2166L30.7722 5.21645C31.3916 4.63701 31.7512 4.97669 31.971 5.19647L37.9453 11.1508C38.5247 11.7702 38.1851 12.1298 37.9653 12.3496Z" fill="url(#paint0_linear_225_3518)"/>
<defs>
<linearGradient id="paint0_linear_225_3518" x1="0.523437" y1="21.5113" x2="45.2675" y2="21.5113" gradientUnits="userSpaceOnUse">
<stop stop-color="#55C6F7"/>
<stop offset="1" stop-color="#2AF8BA"/>
</linearGradient>
</defs>
</svg>
