<svg width="43" height="43" viewBox="0 0 43 43" fill="none" xmlns="http://www.w3.org/2000/svg">
<path d="M18.2504 19.2991C16.3612 19.2991 14.5144 18.7389 12.9436 17.6893C11.3728 16.6397 10.1485 15.1479 9.42559 13.4026C8.70263 11.6572 8.51347 9.73661 8.88203 7.88373C9.25059 6.03084 10.1603 4.32886 11.4962 2.993C12.832 1.65715 14.534 0.747416 16.3869 0.378854C18.2398 0.0102919 20.1604 0.199451 21.9057 0.922411C23.6511 1.64537 25.1429 2.86966 26.1925 4.44046C27.2421 6.01126 27.8023 7.85802 27.8023 9.74721C27.8023 12.2805 26.7959 14.7101 25.0046 16.5014C23.2133 18.2927 20.7837 19.2991 18.2504 19.2991ZM18.2504 3.03359C16.901 3.03359 15.5819 3.43374 14.4599 4.18344C13.3379 4.93314 12.4634 5.99871 11.947 7.24541C11.4306 8.49211 11.2954 9.86394 11.5587 11.1874C11.822 12.5109 12.4718 13.7266 13.426 14.6808C14.3801 15.635 15.5958 16.2848 16.9193 16.5481C18.2428 16.8113 19.6146 16.6762 20.8613 16.1598C22.108 15.6434 23.1736 14.7689 23.9233 13.6469C24.673 12.5249 25.0732 11.2058 25.0732 9.85637C25.0732 8.96039 24.8967 8.07319 24.5538 7.24541C24.2109 6.41763 23.7084 5.66549 23.0748 5.03194C22.4413 4.39839 21.6891 3.89582 20.8613 3.55295C20.0336 3.21007 19.1464 3.03359 18.2504 3.03359ZM25.851 20.9502C18.4666 19.2886 10.7413 20.0889 3.85432 23.229C2.90717 23.6814 2.10804 24.3936 1.54999 25.2827C0.99194 26.1717 0.697928 27.2009 0.702194 28.2506V36.3697C0.702194 36.5489 0.73749 36.7263 0.806065 36.8919C0.87464 37.0574 0.975153 37.2079 1.10186 37.3346C1.22857 37.4613 1.379 37.5618 1.54456 37.6304C1.71011 37.699 1.88755 37.7343 2.06675 37.7343C2.24595 37.7343 2.42339 37.699 2.58894 37.6304C2.7545 37.5618 2.90493 37.4613 3.03164 37.3346C3.15835 37.2079 3.25886 37.0574 3.32744 36.8919C3.39601 36.7263 3.43131 36.5489 3.43131 36.3697V28.2506C3.41943 27.7194 3.56288 27.1962 3.84406 26.7454C4.12524 26.2945 4.53191 25.9355 5.01419 25.7125C9.16281 23.797 13.6809 22.8141 18.2504 22.8333C20.8107 22.83 23.3623 23.1324 25.851 23.7339V20.9502ZM26.042 33.9271H34.4204V35.8375H26.042V33.9271Z" fill="url(#paint0_linear_225_3524)"/>
<path d="M41.0935 25.8236H34.0387V28.5527H39.7289V39.974H20.3932V28.5527H28.9899V29.1258C28.9899 29.4877 29.1336 29.8348 29.3895 30.0907C29.6455 30.3466 29.9925 30.4904 30.3544 30.4904C30.7163 30.4904 31.0634 30.3466 31.3193 30.0907C31.5752 29.8348 31.719 29.4877 31.719 29.1258V23.8177C31.719 23.4558 31.5752 23.1087 31.3193 22.8528C31.0634 22.5969 30.7163 22.4531 30.3544 22.4531C29.9925 22.4531 29.6455 22.5969 29.3895 22.8528C29.1336 23.1087 28.9899 23.4558 28.9899 23.8177V25.8236H19.0286C18.6667 25.8236 18.3196 25.9673 18.0637 26.2232C17.8078 26.4792 17.6641 26.8262 17.6641 27.1881V41.3386C17.6641 41.7005 17.8078 42.0476 18.0637 42.3035C18.3196 42.5594 18.6667 42.7031 19.0286 42.7031H41.0935C41.4554 42.7031 41.8025 42.5594 42.0584 42.3035C42.3143 42.0476 42.458 41.7005 42.458 41.3386V27.1881C42.458 26.8262 42.3143 26.4792 42.0584 26.2232C41.8025 25.9673 41.4554 25.8236 41.0935 25.8236Z" fill="url(#paint1_linear_225_3524)"/>
<defs>
<linearGradient id="paint0_linear_225_3524" x1="0.702148" y1="18.7397" x2="36.8337" y2="18.7397" gradientUnits="userSpaceOnUse">
<stop stop-color="#55C6F7"/>
<stop offset="1" stop-color="#2AF8BA"/>
</linearGradient>
<linearGradient id="paint1_linear_225_3524" x1="17.6641" y1="32.4567" x2="44.2326" y2="32.4567" gradientUnits="userSpaceOnUse">
<stop stop-color="#55C6F7"/>
<stop offset="1" stop-color="#2AF8BA"/>
</linearGradient>
</defs>
</svg>
