<svg width="42" height="38" viewBox="0 0 42 38" fill="none" xmlns="http://www.w3.org/2000/svg">
<path d="M37.3797 8.76167H29.1317V4.63767L25.0077 0.513672H16.7597L12.6357 4.63767V8.76167H4.38767C2.11947 8.76167 0.263672 10.6175 0.263672 12.8857V23.1957C0.263672 24.7422 1.08847 26.0412 2.32567 26.7629V33.5057C2.32567 35.7945 4.16085 37.6297 6.44967 37.6297H35.3177C37.6065 37.6297 39.4417 35.7945 39.4417 33.5057V26.7423C40.6582 26.0206 41.5037 24.7009 41.5037 23.1957V12.8857C41.5037 10.6175 39.6479 8.76167 37.3797 8.76167ZM16.7597 4.63767H25.0077V8.76167H16.7597V4.63767ZM4.38767 12.8857H37.3797V23.1957H27.0697V17.0097H14.6977V23.1957H4.38767V12.8857ZM22.9457 25.2577H18.8217V21.1337H22.9457V25.2577ZM35.3177 33.5057H6.44967V27.3197H14.6977V29.3817H27.0697V27.3197H35.3177V33.5057Z" fill="url(#paint0_linear_225_3517)"/>
<defs>
<linearGradient id="paint0_linear_225_3517" x1="0.263672" y1="18.8492" x2="44.4553" y2="18.8492" gradientUnits="userSpaceOnUse">
<stop stop-color="#55C6F7"/>
<stop offset="1" stop-color="#2AF8BA"/>
</linearGradient>
</defs>
</svg>
