<svg width="38" height="43" viewBox="0 0 38 43" fill="none" xmlns="http://www.w3.org/2000/svg">
<path d="M18.6801 5.00681C16.766 5.00681 14.9303 5.76717 13.5769 7.12062C12.2234 8.47407 11.4631 10.3097 11.4631 12.2238C11.4631 14.1379 12.2234 15.9735 13.5769 17.327C14.9303 18.6804 16.766 19.4408 18.6801 19.4408C20.5941 19.4408 22.4298 18.6804 23.7833 17.327C25.1367 15.9735 25.8971 14.1379 25.8971 12.2238C25.8971 10.3097 25.1367 8.47407 23.7833 7.12062C22.4298 5.76717 20.5941 5.00681 18.6801 5.00681ZM7.33907 12.2238C7.33907 9.21599 8.53392 6.33136 10.6608 4.20451C12.7876 2.07766 15.6722 0.882813 18.6801 0.882812C21.6879 0.882813 24.5725 2.07766 26.6994 4.20451C28.8262 6.33136 30.0211 9.21599 30.0211 12.2238C30.0211 15.2316 28.8262 18.1163 26.6994 20.2431C24.5725 22.37 21.6879 23.5648 18.6801 23.5648C15.6722 23.5648 12.7876 22.37 10.6608 20.2431C8.53392 18.1163 7.33907 15.2316 7.33907 12.2238ZM0.12207 35.9368C0.12207 33.2024 1.2083 30.58 3.1418 28.6465C5.0753 26.713 7.69769 25.6268 10.4321 25.6268H26.9281C29.6624 25.6268 32.2848 26.713 34.2183 28.6465C36.1518 30.58 37.2381 33.2024 37.2381 35.9368V42.1228H0.12207V35.9368ZM10.4321 29.7508C8.79144 29.7508 7.21801 30.4025 6.05791 31.5626C4.89781 32.7227 4.24607 34.2962 4.24607 35.9368V37.9988H15.8201L13.0694 29.7508H10.4321ZM17.4161 29.7508L18.6801 33.5408L19.9441 29.7508H17.4161ZM24.2908 29.7508L21.5401 37.9988H33.1141V35.9368C33.1141 34.2962 32.4623 32.7227 31.3022 31.5626C30.1421 30.4025 28.5687 29.7508 26.9281 29.7508H24.2908Z" fill="url(#paint0_linear_225_3516)"/>
<defs>
<linearGradient id="paint0_linear_225_3516" x1="0.12207" y1="21.2556" x2="39.8946" y2="21.2556" gradientUnits="userSpaceOnUse">
<stop stop-color="#55C6F7"/>
<stop offset="1" stop-color="#2AF8BA"/>
</linearGradient>
</defs>
</svg>
