<svg width="31" height="31" viewBox="0 0 31 31" fill="none" xmlns="http://www.w3.org/2000/svg">
<path d="M11.179 4.25138C11.7083 3.43351 12.4138 2.74435 13.2439 2.23435C14.0739 1.72435 15.0075 1.40642 15.9763 1.30382C16.9451 1.20123 17.9245 1.31657 18.843 1.64141C19.7615 1.96624 20.5956 2.49235 21.2845 3.18122C21.9734 3.87009 22.4995 4.70428 22.8243 5.62273C23.1492 6.54119 23.2645 7.52066 23.1619 8.48945C23.0593 9.45823 22.7414 10.3918 22.2314 11.2219C21.7214 12.0519 21.0322 12.7574 20.2144 13.2867L11.179 4.25138ZM29.7235 22.7959C29.6908 20.9986 28.6942 19.3484 27.093 18.5151C26.2107 18.0576 25.2467 17.6328 24.201 17.2734L29.7235 22.7959ZM30.5241 28.2203L2.78089 0.477126C2.47539 0.171627 2.06105 0 1.62901 0C1.19697 0 0.782624 0.171627 0.477125 0.477126C0.171627 0.782624 0 1.19697 0 1.62901C0 2.06105 0.171627 2.47539 0.477125 2.78089L13.8422 16.146C10.8686 16.5218 8.27072 17.4531 6.16302 18.5315C4.56182 19.3811 3.58149 21.064 3.58149 22.8776V27.4197H25.0996L28.204 30.5241C28.8412 31.1613 29.8706 31.1613 30.5078 30.5241C31.1613 29.8869 31.1613 28.8576 30.5241 28.2203Z" fill="#595959"/>
</svg>
