<svg width="389" height="50" viewBox="0 0 389 50" fill="none" xmlns="http://www.w3.org/2000/svg">
<path d="M13.08 19L11.016 13.696H4.224L2.184 19H0L6.696 1.792H8.64L15.312 19H13.08ZM8.448 6.592C8.4 6.464 8.32 6.232 8.208 5.896C8.096 5.56 7.984 5.216 7.872 4.864C7.776 4.496 7.696 4.216 7.632 4.024C7.552 4.344 7.464 4.672 7.368 5.008C7.288 5.328 7.2 5.624 7.104 5.896C7.024 6.168 6.952 6.4 6.888 6.592L4.944 11.776H10.368L8.448 6.592ZM27.7121 9.376C27.7121 10.176 27.4721 10.8 26.9921 11.248C26.5121 11.696 25.8961 12 25.1441 12.16V12.256C25.9441 12.368 26.6401 12.656 27.2321 13.12C27.8241 13.568 28.1201 14.272 28.1201 15.232C28.1201 15.776 28.0161 16.28 27.8081 16.744C27.6161 17.208 27.3121 17.608 26.8961 17.944C26.4801 18.28 25.9441 18.544 25.2881 18.736C24.6321 18.912 23.8401 19 22.9121 19H17.3681V6.136H22.8881C23.8001 6.136 24.6161 6.24 25.3361 6.448C26.0721 6.64 26.6481 6.976 27.0641 7.456C27.4961 7.92 27.7121 8.56 27.7121 9.376ZM25.9361 15.232C25.9361 14.496 25.6561 13.968 25.0961 13.648C24.5361 13.328 23.7121 13.168 22.6241 13.168H19.4801V17.296H22.6721C23.7281 17.296 24.5361 17.144 25.0961 16.84C25.6561 16.52 25.9361 15.984 25.9361 15.232ZM25.5761 9.64C25.5761 9.032 25.3521 8.592 24.9041 8.32C24.4721 8.032 23.7601 7.888 22.7681 7.888H19.4801V11.416H22.3841C23.4241 11.416 24.2161 11.272 24.7601 10.984C25.3041 10.696 25.5761 10.248 25.5761 9.64ZM40.0763 7.912H35.8763V19H33.7883V7.912H29.6363V6.136H40.0763V7.912ZM53.5599 12.544C53.5599 13.616 53.4159 14.568 53.1279 15.4C52.8559 16.216 52.4559 16.912 51.9279 17.488C51.4159 18.064 50.7839 18.504 50.0319 18.808C49.2959 19.096 48.4719 19.24 47.5599 19.24C46.7119 19.24 45.9279 19.096 45.2079 18.808C44.4879 18.504 43.8639 18.064 43.3359 17.488C42.8079 16.912 42.3919 16.216 42.0879 15.4C41.7999 14.568 41.6559 13.616 41.6559 12.544C41.6559 11.12 41.8959 9.92 42.3759 8.944C42.8559 7.952 43.5439 7.2 44.4399 6.688C45.3359 6.16 46.3999 5.896 47.6319 5.896C48.7999 5.896 49.8239 6.16 50.7039 6.688C51.5999 7.2 52.2959 7.952 52.7919 8.944C53.3039 9.92 53.5599 11.12 53.5599 12.544ZM43.8399 12.544C43.8399 13.552 43.9679 14.432 44.2239 15.184C44.4959 15.92 44.9119 16.488 45.4719 16.888C46.0319 17.288 46.7439 17.488 47.6079 17.488C48.4719 17.488 49.1839 17.288 49.7439 16.888C50.3039 16.488 50.7119 15.92 50.9679 15.184C51.2399 14.432 51.3759 13.552 51.3759 12.544C51.3759 11.52 51.2399 10.648 50.9679 9.928C50.6959 9.208 50.2799 8.656 49.7199 8.272C49.1759 7.872 48.4639 7.672 47.5839 7.672C46.2719 7.672 45.3199 8.104 44.7279 8.968C44.1359 9.832 43.8399 11.024 43.8399 12.544ZM63.0272 5.896C64.6112 5.896 65.8832 6.448 66.8432 7.552C67.8192 8.656 68.3072 10.32 68.3072 12.544C68.3072 14 68.0832 15.232 67.6352 16.24C67.2032 17.232 66.5872 17.984 65.7872 18.496C65.0032 18.992 64.0752 19.24 63.0032 19.24C62.3472 19.24 61.7632 19.152 61.2512 18.976C60.7392 18.8 60.2992 18.576 59.9312 18.304C59.5792 18.016 59.2752 17.704 59.0192 17.368H58.8752C58.9072 17.64 58.9392 17.984 58.9712 18.4C59.0032 18.816 59.0192 19.176 59.0192 19.48V24.76H56.9072V6.136H58.6352L58.9232 7.888H59.0192C59.2752 7.52 59.5792 7.184 59.9312 6.88C60.2992 6.576 60.7312 6.336 61.2272 6.16C61.7392 5.984 62.3392 5.896 63.0272 5.896ZM62.6432 7.672C61.7792 7.672 61.0832 7.84 60.5552 8.176C60.0272 8.496 59.6432 8.984 59.4032 9.64C59.1632 10.296 59.0352 11.128 59.0192 12.136V12.544C59.0192 13.6 59.1312 14.496 59.3552 15.232C59.5792 15.968 59.9552 16.528 60.4832 16.912C61.0272 17.296 61.7632 17.488 62.6912 17.488C63.4752 17.488 64.1152 17.272 64.6112 16.84C65.1232 16.408 65.4992 15.824 65.7392 15.088C65.9952 14.336 66.1232 13.48 66.1232 12.52C66.1232 11.048 65.8352 9.872 65.2592 8.992C64.6992 8.112 63.8272 7.672 62.6432 7.672ZM76.8328 19.24C75.6968 19.24 74.6808 19.008 73.7848 18.544C72.9048 18.08 72.2088 17.36 71.6968 16.384C71.2008 15.408 70.9528 14.16 70.9528 12.64C70.9528 11.056 71.2168 9.768 71.7448 8.776C72.2728 7.784 72.9848 7.056 73.8808 6.592C74.7928 6.128 75.8248 5.896 76.9768 5.896C77.6328 5.896 78.2648 5.968 78.8728 6.112C79.4808 6.24 79.9768 6.4 80.3608 6.592L79.7128 8.344C79.3288 8.2 78.8808 8.064 78.3688 7.936C77.8568 7.808 77.3768 7.744 76.9288 7.744C76.0648 7.744 75.3528 7.928 74.7928 8.296C74.2328 8.664 73.8168 9.208 73.5448 9.928C73.2728 10.648 73.1368 11.544 73.1368 12.616C73.1368 13.64 73.2728 14.512 73.5448 15.232C73.8168 15.952 74.2248 16.496 74.7688 16.864C75.3128 17.232 75.9928 17.416 76.8088 17.416C77.5128 17.416 78.1288 17.344 78.6568 17.2C79.2008 17.056 79.6968 16.88 80.1448 16.672V18.544C79.7128 18.768 79.2328 18.936 78.7048 19.048C78.1928 19.176 77.5688 19.24 76.8328 19.24ZM90.8121 6.136H93.1161L87.6201 12.328L93.5721 19H91.1241L85.3161 12.472V19H83.2041V6.136H85.3161V12.376L90.8121 6.136ZM100.779 5.92C102.347 5.92 103.507 6.264 104.259 6.952C105.011 7.64 105.387 8.736 105.387 10.24V19H103.851L103.443 17.176H103.347C102.979 17.64 102.595 18.032 102.195 18.352C101.811 18.656 101.363 18.88 100.851 19.024C100.355 19.168 99.7472 19.24 99.0272 19.24C98.2592 19.24 97.5632 19.104 96.9392 18.832C96.3312 18.56 95.8512 18.144 95.4992 17.584C95.1472 17.008 94.9712 16.288 94.9712 15.424C94.9712 14.144 95.4752 13.16 96.4832 12.472C97.4912 11.768 99.0432 11.384 101.139 11.32L103.323 11.248V10.48C103.323 9.408 103.091 8.664 102.627 8.248C102.163 7.832 101.507 7.624 100.659 7.624C99.9872 7.624 99.3472 7.728 98.7392 7.936C98.1312 8.128 97.5632 8.352 97.0352 8.608L96.3872 7.024C96.9472 6.72 97.6112 6.464 98.3792 6.256C99.1472 6.032 99.9472 5.92 100.779 5.92ZM101.403 12.784C99.8032 12.848 98.6912 13.104 98.0672 13.552C97.4592 14 97.1552 14.632 97.1552 15.448C97.1552 16.168 97.3712 16.696 97.8032 17.032C98.2512 17.368 98.8192 17.536 99.5072 17.536C100.595 17.536 101.499 17.24 102.219 16.648C102.939 16.04 103.299 15.112 103.299 13.864V12.712L101.403 12.784ZM110.152 19H107.704L111.376 13.6C110.88 13.472 110.4 13.272 109.936 13C109.472 12.712 109.096 12.32 108.808 11.824C108.52 11.312 108.376 10.68 108.376 9.928C108.376 8.696 108.792 7.76 109.624 7.12C110.456 6.464 111.56 6.136 112.936 6.136H118.696V19H116.584V13.888H113.464L110.152 19ZM110.416 9.952C110.416 10.688 110.688 11.24 111.232 11.608C111.792 11.96 112.568 12.136 113.56 12.136H116.584V7.888H113.152C112.176 7.888 111.472 8.08 111.04 8.464C110.624 8.848 110.416 9.344 110.416 9.952ZM144.371 6.136V19H142.475V10.792C142.475 10.456 142.483 10.104 142.499 9.736C142.531 9.368 142.563 9.008 142.595 8.656H142.523L138.323 19H136.547L132.467 8.656H132.395C132.427 9.008 132.443 9.368 132.443 9.736C132.459 10.104 132.467 10.48 132.467 10.864V19H130.571V6.136H133.379L137.435 16.48L141.563 6.136H144.371ZM153.446 5.896C154.55 5.896 155.494 6.136 156.278 6.616C157.078 7.096 157.686 7.776 158.102 8.656C158.534 9.52 158.75 10.536 158.75 11.704V12.976H149.942C149.974 14.432 150.342 15.544 151.046 16.312C151.766 17.064 152.766 17.44 154.046 17.44C154.862 17.44 155.582 17.368 156.206 17.224C156.846 17.064 157.502 16.84 158.174 16.552V18.4C157.518 18.688 156.87 18.896 156.23 19.024C155.59 19.168 154.83 19.24 153.95 19.24C152.734 19.24 151.654 18.992 150.71 18.496C149.782 18 149.054 17.264 148.526 16.288C148.014 15.296 147.758 14.088 147.758 12.664C147.758 11.256 147.99 10.048 148.454 9.04C148.934 8.032 149.598 7.256 150.446 6.712C151.31 6.168 152.31 5.896 153.446 5.896ZM153.422 7.624C152.414 7.624 151.614 7.952 151.022 8.608C150.446 9.248 150.102 10.144 149.99 11.296H156.542C156.542 10.56 156.43 9.92 156.206 9.376C155.982 8.832 155.638 8.408 155.174 8.104C154.726 7.784 154.142 7.624 153.422 7.624ZM170.904 7.912H166.704V19H164.616V7.912H160.464V6.136H170.904V7.912ZM184.388 12.544C184.388 13.616 184.244 14.568 183.956 15.4C183.684 16.216 183.284 16.912 182.756 17.488C182.244 18.064 181.612 18.504 180.86 18.808C180.124 19.096 179.3 19.24 178.388 19.24C177.54 19.24 176.756 19.096 176.036 18.808C175.316 18.504 174.692 18.064 174.164 17.488C173.636 16.912 173.22 16.216 172.916 15.4C172.628 14.568 172.484 13.616 172.484 12.544C172.484 11.12 172.724 9.92 173.204 8.944C173.684 7.952 174.372 7.2 175.268 6.688C176.164 6.16 177.228 5.896 178.46 5.896C179.628 5.896 180.652 6.16 181.532 6.688C182.428 7.2 183.124 7.952 183.62 8.944C184.132 9.92 184.388 11.12 184.388 12.544ZM174.668 12.544C174.668 13.552 174.796 14.432 175.052 15.184C175.324 15.92 175.74 16.488 176.3 16.888C176.86 17.288 177.572 17.488 178.436 17.488C179.3 17.488 180.012 17.288 180.572 16.888C181.132 16.488 181.54 15.92 181.796 15.184C182.068 14.432 182.204 13.552 182.204 12.544C182.204 11.52 182.068 10.648 181.796 9.928C181.524 9.208 181.108 8.656 180.548 8.272C180.004 7.872 179.292 7.672 178.412 7.672C177.1 7.672 176.148 8.104 175.556 8.968C174.964 9.832 174.668 11.024 174.668 12.544ZM197.287 6.136V17.224H199.159V23.464H197.119V19H188.167V23.464H186.151V17.224H187.183C187.919 16.2 188.527 15.088 189.007 13.888C189.503 12.672 189.871 11.408 190.111 10.096C190.367 8.768 190.503 7.448 190.519 6.136H197.287ZM192.391 7.792C192.327 8.88 192.159 10.008 191.887 11.176C191.615 12.328 191.263 13.432 190.831 14.488C190.415 15.544 189.927 16.456 189.367 17.224H195.247V7.792H192.391ZM203.673 13.984C203.673 14.128 203.665 14.336 203.649 14.608C203.649 14.864 203.641 15.144 203.625 15.448C203.609 15.736 203.593 16.016 203.577 16.288C203.561 16.544 203.545 16.752 203.529 16.912L210.417 6.136H213.009V19H211.041V11.416C211.041 11.16 211.041 10.824 211.041 10.408C211.057 9.992 211.073 9.584 211.089 9.184C211.105 8.768 211.121 8.456 211.137 8.248L204.297 19H201.681V6.136H203.673V13.984ZM224.711 6.136H227.015L221.519 12.328L227.471 19H225.023L219.215 12.472V19H217.103V6.136H219.215V12.376L224.711 6.136ZM234.678 5.92C236.246 5.92 237.406 6.264 238.158 6.952C238.91 7.64 239.286 8.736 239.286 10.24V19H237.75L237.342 17.176H237.246C236.878 17.64 236.494 18.032 236.094 18.352C235.71 18.656 235.262 18.88 234.75 19.024C234.254 19.168 233.646 19.24 232.926 19.24C232.158 19.24 231.462 19.104 230.838 18.832C230.23 18.56 229.75 18.144 229.398 17.584C229.046 17.008 228.87 16.288 228.87 15.424C228.87 14.144 229.374 13.16 230.382 12.472C231.39 11.768 232.942 11.384 235.038 11.32L237.222 11.248V10.48C237.222 9.408 236.99 8.664 236.526 8.248C236.062 7.832 235.406 7.624 234.558 7.624C233.886 7.624 233.246 7.728 232.638 7.936C232.03 8.128 231.462 8.352 230.934 8.608L230.286 7.024C230.846 6.72 231.51 6.464 232.278 6.256C233.046 6.032 233.846 5.92 234.678 5.92ZM235.302 12.784C233.702 12.848 232.59 13.104 231.966 13.552C231.358 14 231.054 14.632 231.054 15.448C231.054 16.168 231.27 16.696 231.702 17.032C232.15 17.368 232.718 17.536 233.406 17.536C234.494 17.536 235.398 17.24 236.118 16.648C236.838 16.04 237.198 15.112 237.198 13.864V12.712L235.302 12.784ZM261.935 6.136V19H259.823V7.936H253.175V19H251.063V6.136H261.935ZM272.16 5.896C273.744 5.896 275.016 6.448 275.976 7.552C276.952 8.656 277.44 10.32 277.44 12.544C277.44 14 277.216 15.232 276.768 16.24C276.336 17.232 275.72 17.984 274.92 18.496C274.136 18.992 273.208 19.24 272.136 19.24C271.48 19.24 270.896 19.152 270.384 18.976C269.872 18.8 269.432 18.576 269.064 18.304C268.712 18.016 268.408 17.704 268.152 17.368H268.008C268.04 17.64 268.072 17.984 268.104 18.4C268.136 18.816 268.152 19.176 268.152 19.48V24.76H266.04V6.136H267.768L268.056 7.888H268.152C268.408 7.52 268.712 7.184 269.064 6.88C269.432 6.576 269.864 6.336 270.36 6.16C270.872 5.984 271.472 5.896 272.16 5.896ZM271.776 7.672C270.912 7.672 270.216 7.84 269.688 8.176C269.16 8.496 268.776 8.984 268.536 9.64C268.296 10.296 268.168 11.128 268.152 12.136V12.544C268.152 13.6 268.264 14.496 268.488 15.232C268.712 15.968 269.088 16.528 269.616 16.912C270.16 17.296 270.896 17.488 271.824 17.488C272.608 17.488 273.248 17.272 273.744 16.84C274.256 16.408 274.632 15.824 274.872 15.088C275.128 14.336 275.256 13.48 275.256 12.52C275.256 11.048 274.968 9.872 274.392 8.992C273.832 8.112 272.96 7.672 271.776 7.672ZM291.99 12.544C291.99 13.616 291.846 14.568 291.558 15.4C291.286 16.216 290.886 16.912 290.358 17.488C289.846 18.064 289.214 18.504 288.462 18.808C287.726 19.096 286.902 19.24 285.99 19.24C285.142 19.24 284.358 19.096 283.638 18.808C282.918 18.504 282.294 18.064 281.766 17.488C281.238 16.912 280.822 16.216 280.518 15.4C280.23 14.568 280.086 13.616 280.086 12.544C280.086 11.12 280.326 9.92 280.806 8.944C281.286 7.952 281.974 7.2 282.87 6.688C283.766 6.16 284.83 5.896 286.062 5.896C287.23 5.896 288.254 6.16 289.134 6.688C290.03 7.2 290.726 7.952 291.222 8.944C291.734 9.92 291.99 11.12 291.99 12.544ZM282.27 12.544C282.27 13.552 282.398 14.432 282.654 15.184C282.926 15.92 283.342 16.488 283.902 16.888C284.462 17.288 285.174 17.488 286.038 17.488C286.902 17.488 287.614 17.288 288.174 16.888C288.734 16.488 289.142 15.92 289.398 15.184C289.67 14.432 289.806 13.552 289.806 12.544C289.806 11.52 289.67 10.648 289.398 9.928C289.126 9.208 288.71 8.656 288.15 8.272C287.606 7.872 286.894 7.672 286.014 7.672C284.702 7.672 283.75 8.104 283.158 8.968C282.566 9.832 282.27 11.024 282.27 12.544ZM303.017 5.944C304.297 6.056 305.409 6.392 306.353 6.952C307.313 7.512 308.057 8.264 308.585 9.208C309.113 10.152 309.377 11.272 309.377 12.568C309.377 13.864 309.121 14.992 308.609 15.952C308.097 16.896 307.369 17.648 306.425 18.208C305.481 18.752 304.345 19.08 303.017 19.192V24.76H300.953V19.192C299.689 19.08 298.577 18.752 297.617 18.208C296.657 17.648 295.913 16.896 295.385 15.952C294.857 14.992 294.593 13.864 294.593 12.568C294.593 11.256 294.849 10.128 295.361 9.184C295.873 8.224 296.609 7.472 297.569 6.928C298.529 6.368 299.681 6.04 301.025 5.944V0.759999H303.017V5.944ZM301.025 7.696C300.049 7.792 299.249 8.04 298.625 8.44C298.001 8.84 297.537 9.384 297.233 10.072C296.945 10.76 296.801 11.592 296.801 12.568C296.801 13.528 296.945 14.36 297.233 15.064C297.537 15.752 298.001 16.304 298.625 16.72C299.249 17.12 300.049 17.368 301.025 17.464V7.696ZM303.017 17.464C303.977 17.352 304.761 17.096 305.369 16.696C305.993 16.296 306.449 15.752 306.737 15.064C307.041 14.36 307.193 13.528 307.193 12.568C307.193 11.608 307.041 10.784 306.737 10.096C306.433 9.408 305.969 8.864 305.345 8.464C304.737 8.064 303.961 7.816 303.017 7.72V17.464ZM317.696 5.896C318.8 5.896 319.744 6.136 320.528 6.616C321.328 7.096 321.936 7.776 322.352 8.656C322.784 9.52 323 10.536 323 11.704V12.976H314.192C314.224 14.432 314.592 15.544 315.296 16.312C316.016 17.064 317.016 17.44 318.296 17.44C319.112 17.44 319.832 17.368 320.456 17.224C321.096 17.064 321.752 16.84 322.424 16.552V18.4C321.768 18.688 321.12 18.896 320.48 19.024C319.84 19.168 319.08 19.24 318.2 19.24C316.984 19.24 315.904 18.992 314.96 18.496C314.032 18 313.304 17.264 312.776 16.288C312.264 15.296 312.008 14.088 312.008 12.664C312.008 11.256 312.24 10.048 312.704 9.04C313.184 8.032 313.848 7.256 314.696 6.712C315.56 6.168 316.56 5.896 317.696 5.896ZM317.672 7.624C316.664 7.624 315.864 7.952 315.272 8.608C314.696 9.248 314.352 10.144 314.24 11.296H320.792C320.792 10.56 320.68 9.92 320.456 9.376C320.232 8.832 319.888 8.408 319.424 8.104C318.976 7.784 318.392 7.624 317.672 7.624ZM331.434 19.24C330.298 19.24 329.282 19.008 328.386 18.544C327.506 18.08 326.81 17.36 326.298 16.384C325.802 15.408 325.554 14.16 325.554 12.64C325.554 11.056 325.818 9.768 326.346 8.776C326.874 7.784 327.586 7.056 328.482 6.592C329.394 6.128 330.426 5.896 331.578 5.896C332.234 5.896 332.866 5.968 333.474 6.112C334.082 6.24 334.578 6.4 334.962 6.592L334.314 8.344C333.93 8.2 333.482 8.064 332.97 7.936C332.458 7.808 331.978 7.744 331.53 7.744C330.666 7.744 329.954 7.928 329.394 8.296C328.834 8.664 328.418 9.208 328.146 9.928C327.874 10.648 327.738 11.544 327.738 12.616C327.738 13.64 327.874 14.512 328.146 15.232C328.418 15.952 328.826 16.496 329.37 16.864C329.914 17.232 330.594 17.416 331.41 17.416C332.114 17.416 332.73 17.344 333.258 17.2C333.802 17.056 334.298 16.88 334.746 16.672V18.544C334.314 18.768 333.834 18.936 333.306 19.048C332.794 19.176 332.17 19.24 331.434 19.24ZM342.966 19.24C341.83 19.24 340.814 19.008 339.918 18.544C339.038 18.08 338.342 17.36 337.83 16.384C337.334 15.408 337.086 14.16 337.086 12.64C337.086 11.056 337.35 9.768 337.878 8.776C338.406 7.784 339.118 7.056 340.014 6.592C340.926 6.128 341.958 5.896 343.11 5.896C343.766 5.896 344.398 5.968 345.006 6.112C345.614 6.24 346.11 6.4 346.494 6.592L345.846 8.344C345.462 8.2 345.014 8.064 344.502 7.936C343.99 7.808 343.51 7.744 343.062 7.744C342.198 7.744 341.486 7.928 340.926 8.296C340.366 8.664 339.95 9.208 339.678 9.928C339.406 10.648 339.27 11.544 339.27 12.616C339.27 13.64 339.406 14.512 339.678 15.232C339.95 15.952 340.358 16.496 340.902 16.864C341.446 17.232 342.126 17.416 342.942 17.416C343.646 17.416 344.262 17.344 344.79 17.2C345.334 17.056 345.83 16.88 346.278 16.672V18.544C345.846 18.768 345.366 18.936 344.838 19.048C344.326 19.176 343.702 19.24 342.966 19.24ZM360.521 12.544C360.521 13.616 360.377 14.568 360.089 15.4C359.817 16.216 359.417 16.912 358.889 17.488C358.377 18.064 357.745 18.504 356.993 18.808C356.257 19.096 355.433 19.24 354.521 19.24C353.673 19.24 352.889 19.096 352.169 18.808C351.449 18.504 350.825 18.064 350.297 17.488C349.769 16.912 349.353 16.216 349.049 15.4C348.761 14.568 348.617 13.616 348.617 12.544C348.617 11.12 348.857 9.92 349.337 8.944C349.817 7.952 350.505 7.2 351.401 6.688C352.297 6.16 353.361 5.896 354.593 5.896C355.761 5.896 356.785 6.16 357.665 6.688C358.561 7.2 359.257 7.952 359.753 8.944C360.265 9.92 360.521 11.12 360.521 12.544ZM350.801 12.544C350.801 13.552 350.929 14.432 351.185 15.184C351.457 15.92 351.873 16.488 352.433 16.888C352.993 17.288 353.705 17.488 354.569 17.488C355.433 17.488 356.145 17.288 356.705 16.888C357.265 16.488 357.673 15.92 357.929 15.184C358.201 14.432 358.337 13.552 358.337 12.544C358.337 11.52 358.201 10.648 357.929 9.928C357.657 9.208 357.241 8.656 356.681 8.272C356.137 7.872 355.425 7.672 354.545 7.672C353.233 7.672 352.281 8.104 351.689 8.968C351.097 9.832 350.801 11.024 350.801 12.544ZM369.988 5.896C371.572 5.896 372.844 6.448 373.804 7.552C374.78 8.656 375.268 10.32 375.268 12.544C375.268 14 375.044 15.232 374.596 16.24C374.164 17.232 373.548 17.984 372.748 18.496C371.964 18.992 371.036 19.24 369.964 19.24C369.308 19.24 368.724 19.152 368.212 18.976C367.7 18.8 367.26 18.576 366.892 18.304C366.54 18.016 366.236 17.704 365.98 17.368H365.836C365.868 17.64 365.9 17.984 365.932 18.4C365.964 18.816 365.98 19.176 365.98 19.48V24.76H363.868V6.136H365.596L365.884 7.888H365.98C366.236 7.52 366.54 7.184 366.892 6.88C367.26 6.576 367.692 6.336 368.188 6.16C368.7 5.984 369.3 5.896 369.988 5.896ZM369.604 7.672C368.74 7.672 368.044 7.84 367.516 8.176C366.988 8.496 366.604 8.984 366.364 9.64C366.124 10.296 365.996 11.128 365.98 12.136V12.544C365.98 13.6 366.092 14.496 366.316 15.232C366.54 15.968 366.916 16.528 367.444 16.912C367.988 17.296 368.724 17.488 369.652 17.488C370.436 17.488 371.076 17.272 371.572 16.84C372.084 16.408 372.46 15.824 372.7 15.088C372.956 14.336 373.084 13.48 373.084 12.52C373.084 11.048 372.796 9.872 372.22 8.992C371.66 8.112 370.788 7.672 369.604 7.672ZM383.506 5.92C385.074 5.92 386.234 6.264 386.986 6.952C387.738 7.64 388.114 8.736 388.114 10.24V19H386.578L386.17 17.176H386.074C385.706 17.64 385.322 18.032 384.922 18.352C384.538 18.656 384.09 18.88 383.578 19.024C383.082 19.168 382.474 19.24 381.754 19.24C380.986 19.24 380.29 19.104 379.666 18.832C379.058 18.56 378.578 18.144 378.226 17.584C377.874 17.008 377.698 16.288 377.698 15.424C377.698 14.144 378.202 13.16 379.21 12.472C380.218 11.768 381.77 11.384 383.866 11.32L386.05 11.248V10.48C386.05 9.408 385.818 8.664 385.354 8.248C384.89 7.832 384.234 7.624 383.386 7.624C382.714 7.624 382.074 7.728 381.466 7.936C380.858 8.128 380.29 8.352 379.762 8.608L379.114 7.024C379.674 6.72 380.338 6.464 381.106 6.256C381.874 6.032 382.674 5.92 383.506 5.92ZM384.13 12.784C382.53 12.848 381.418 13.104 380.794 13.552C380.186 14 379.882 14.632 379.882 15.448C379.882 16.168 380.098 16.696 380.53 17.032C380.978 17.368 381.546 17.536 382.234 17.536C383.322 17.536 384.226 17.24 384.946 16.648C385.666 16.04 386.026 15.112 386.026 13.864V12.712L384.13 12.784ZM12.912 36.136V49H10.8V37.936H4.152V49H2.04V36.136H12.912ZM22.1766 49.24C21.0406 49.24 20.0246 49.008 19.1286 48.544C18.2486 48.08 17.5526 47.36 17.0406 46.384C16.5446 45.408 16.2966 44.16 16.2966 42.64C16.2966 41.056 16.5606 39.768 17.0886 38.776C17.6166 37.784 18.3286 37.056 19.2246 36.592C20.1366 36.128 21.1686 35.896 22.3206 35.896C22.9766 35.896 23.6086 35.968 24.2166 36.112C24.8246 36.24 25.3206 36.4 25.7046 36.592L25.0566 38.344C24.6726 38.2 24.2246 38.064 23.7126 37.936C23.2006 37.808 22.7206 37.744 22.2726 37.744C21.4086 37.744 20.6966 37.928 20.1366 38.296C19.5766 38.664 19.1606 39.208 18.8886 39.928C18.6166 40.648 18.4806 41.544 18.4806 42.616C18.4806 43.64 18.6166 44.512 18.8886 45.232C19.1606 45.952 19.5686 46.496 20.1126 46.864C20.6566 47.232 21.3366 47.416 22.1526 47.416C22.8566 47.416 23.4726 47.344 24.0006 47.2C24.5446 47.056 25.0406 46.88 25.4886 46.672V48.544C25.0566 48.768 24.5766 48.936 24.0486 49.048C23.5366 49.176 22.9126 49.24 22.1766 49.24ZM30.5398 43.984C30.5398 44.128 30.5318 44.336 30.5158 44.608C30.5158 44.864 30.5078 45.144 30.4918 45.448C30.4758 45.736 30.4598 46.016 30.4438 46.288C30.4278 46.544 30.4118 46.752 30.3958 46.912L37.2838 36.136H39.8758V49H37.9078V41.416C37.9078 41.16 37.9078 40.824 37.9078 40.408C37.9238 39.992 37.9398 39.584 37.9558 39.184C37.9718 38.768 37.9878 38.456 38.0038 38.248L31.1638 49H28.5478V36.136H30.5398V43.984ZM47.0177 42.424L42.5777 36.136H44.9777L48.2897 40.984L51.5777 36.136H53.9537L49.5137 42.424L54.1937 49H51.7937L48.2897 43.864L44.7377 49H42.3617L47.0177 42.424ZM67.3881 42.544C67.3881 43.616 67.2441 44.568 66.9561 45.4C66.6841 46.216 66.2841 46.912 65.7561 47.488C65.2441 48.064 64.6121 48.504 63.8601 48.808C63.1241 49.096 62.3001 49.24 61.3881 49.24C60.5401 49.24 59.7561 49.096 59.0361 48.808C58.3161 48.504 57.6921 48.064 57.1641 47.488C56.6361 46.912 56.2201 46.216 55.9161 45.4C55.6281 44.568 55.4841 43.616 55.4841 42.544C55.4841 41.12 55.7241 39.92 56.2041 38.944C56.6841 37.952 57.3721 37.2 58.2681 36.688C59.1641 36.16 60.2281 35.896 61.4601 35.896C62.6281 35.896 63.6521 36.16 64.5321 36.688C65.4281 37.2 66.1241 37.952 66.6201 38.944C67.1321 39.92 67.3881 41.12 67.3881 42.544ZM57.6681 42.544C57.6681 43.552 57.7961 44.432 58.0521 45.184C58.3241 45.92 58.7401 46.488 59.3001 46.888C59.8601 47.288 60.5721 47.488 61.4361 47.488C62.3001 47.488 63.0121 47.288 63.5721 46.888C64.1321 46.488 64.5401 45.92 64.7961 45.184C65.0681 44.432 65.2041 43.552 65.2041 42.544C65.2041 41.52 65.0681 40.648 64.7961 39.928C64.5241 39.208 64.1081 38.656 63.5481 38.272C63.0041 37.872 62.2921 37.672 61.4121 37.672C60.1001 37.672 59.1481 38.104 58.5561 38.968C57.9641 39.832 57.6681 41.024 57.6681 42.544ZM80.5273 49H78.3913V37.888H74.5993C74.4393 39.92 74.2393 41.656 73.9993 43.096C73.7593 44.52 73.4553 45.68 73.0873 46.576C72.7193 47.472 72.2793 48.128 71.7673 48.544C71.2553 48.96 70.6553 49.168 69.9673 49.168C69.7593 49.168 69.5513 49.152 69.3433 49.12C69.1513 49.104 68.9913 49.064 68.8633 49V47.416C68.9593 47.448 69.0633 47.472 69.1753 47.488C69.2873 47.504 69.3993 47.512 69.5113 47.512C69.8633 47.512 70.1833 47.368 70.4713 47.08C70.7593 46.792 71.0153 46.352 71.2393 45.76C71.4793 45.168 71.6953 44.424 71.8873 43.528C72.0793 42.616 72.2473 41.544 72.3913 40.312C72.5353 39.08 72.6633 37.688 72.7753 36.136H80.5273V49ZM95.7943 42.544C95.7943 43.616 95.6503 44.568 95.3623 45.4C95.0903 46.216 94.6903 46.912 94.1623 47.488C93.6503 48.064 93.0183 48.504 92.2663 48.808C91.5303 49.096 90.7063 49.24 89.7943 49.24C88.9463 49.24 88.1623 49.096 87.4423 48.808C86.7223 48.504 86.0983 48.064 85.5703 47.488C85.0423 46.912 84.6263 46.216 84.3223 45.4C84.0343 44.568 83.8903 43.616 83.8903 42.544C83.8903 41.12 84.1303 39.92 84.6103 38.944C85.0903 37.952 85.7783 37.2 86.6743 36.688C87.5703 36.16 88.6343 35.896 89.8663 35.896C91.0343 35.896 92.0583 36.16 92.9383 36.688C93.8343 37.2 94.5303 37.952 95.0263 38.944C95.5383 39.92 95.7943 41.12 95.7943 42.544ZM86.0743 42.544C86.0743 43.552 86.2023 44.432 86.4583 45.184C86.7303 45.92 87.1463 46.488 87.7063 46.888C88.2663 47.288 88.9783 47.488 89.8423 47.488C90.7063 47.488 91.4183 47.288 91.9783 46.888C92.5383 46.488 92.9463 45.92 93.2023 45.184C93.4743 44.432 93.6103 43.552 93.6103 42.544C93.6103 41.52 93.4743 40.648 93.2023 39.928C92.9303 39.208 92.5143 38.656 91.9543 38.272C91.4103 37.872 90.6983 37.672 89.8183 37.672C88.5063 37.672 87.5543 38.104 86.9623 38.968C86.3703 39.832 86.0743 41.024 86.0743 42.544ZM106.99 36.136V37.912H101.254V49H99.1416V36.136H106.99ZM111.516 43.984C111.516 44.128 111.508 44.336 111.492 44.608C111.492 44.864 111.484 45.144 111.468 45.448C111.452 45.736 111.436 46.016 111.42 46.288C111.404 46.544 111.388 46.752 111.372 46.912L118.26 36.136H120.852V49H118.884V41.416C118.884 41.16 118.884 40.824 118.884 40.408C118.9 39.992 118.916 39.584 118.932 39.184C118.948 38.768 118.964 38.456 118.98 38.248L112.14 49H109.524V36.136H111.516V43.984ZM126.938 43.984C126.938 44.128 126.93 44.336 126.914 44.608C126.914 44.864 126.906 45.144 126.89 45.448C126.874 45.736 126.858 46.016 126.842 46.288C126.826 46.544 126.81 46.752 126.794 46.912L133.682 36.136H136.274V49H134.306V41.416C134.306 41.16 134.306 40.824 134.306 40.408C134.322 39.992 134.338 39.584 134.354 39.184C134.37 38.768 134.386 38.456 134.402 38.248L127.562 49H124.946V36.136H126.938V43.984Z" fill="white"/>
<path d="M155.805 33.52C154.893 33.52 154.069 33.68 153.333 34C152.597 34.304 151.973 34.76 151.461 35.368C150.949 35.96 150.557 36.688 150.285 37.552C150.013 38.4 149.877 39.36 149.877 40.432C149.877 41.84 150.093 43.064 150.525 44.104C150.973 45.144 151.629 45.944 152.493 46.504C153.373 47.064 154.469 47.344 155.781 47.344C156.533 47.344 157.245 47.28 157.917 47.152C158.589 47.024 159.245 46.864 159.885 46.672V48.544C159.245 48.784 158.581 48.96 157.893 49.072C157.221 49.184 156.413 49.24 155.469 49.24C153.725 49.24 152.269 48.88 151.101 48.16C149.933 47.44 149.053 46.416 148.461 45.088C147.885 43.76 147.597 42.2 147.597 40.408C147.597 39.112 147.773 37.928 148.125 36.856C148.493 35.784 149.021 34.856 149.709 34.072C150.413 33.288 151.277 32.688 152.301 32.272C153.325 31.84 154.501 31.624 155.829 31.624C156.709 31.624 157.557 31.712 158.373 31.888C159.189 32.064 159.917 32.312 160.557 32.632L159.693 34.456C159.165 34.216 158.573 34 157.917 33.808C157.277 33.616 156.573 33.52 155.805 33.52ZM173.681 39.376C173.681 40.176 173.441 40.8 172.961 41.248C172.481 41.696 171.865 42 171.113 42.16V42.256C171.913 42.368 172.609 42.656 173.201 43.12C173.793 43.568 174.089 44.272 174.089 45.232C174.089 45.776 173.985 46.28 173.777 46.744C173.585 47.208 173.281 47.608 172.865 47.944C172.449 48.28 171.913 48.544 171.257 48.736C170.601 48.912 169.809 49 168.881 49H163.337V36.136H168.857C169.769 36.136 170.585 36.24 171.305 36.448C172.041 36.64 172.617 36.976 173.033 37.456C173.465 37.92 173.681 38.56 173.681 39.376ZM171.905 45.232C171.905 44.496 171.625 43.968 171.065 43.648C170.505 43.328 169.681 43.168 168.593 43.168H165.449V47.296H168.641C169.697 47.296 170.505 47.144 171.065 46.84C171.625 46.52 171.905 45.984 171.905 45.232ZM171.545 39.64C171.545 39.032 171.321 38.592 170.873 38.32C170.441 38.032 169.729 37.888 168.737 37.888H165.449V41.416H168.353C169.393 41.416 170.185 41.272 170.729 40.984C171.273 40.696 171.545 40.248 171.545 39.64ZM182.133 35.896C183.237 35.896 184.181 36.136 184.965 36.616C185.765 37.096 186.373 37.776 186.789 38.656C187.221 39.52 187.437 40.536 187.437 41.704V42.976H178.629C178.661 44.432 179.029 45.544 179.733 46.312C180.453 47.064 181.453 47.44 182.733 47.44C183.549 47.44 184.269 47.368 184.893 47.224C185.533 47.064 186.189 46.84 186.861 46.552V48.4C186.205 48.688 185.557 48.896 184.917 49.024C184.277 49.168 183.517 49.24 182.637 49.24C181.421 49.24 180.341 48.992 179.397 48.496C178.469 48 177.741 47.264 177.213 46.288C176.701 45.296 176.445 44.088 176.445 42.664C176.445 41.256 176.677 40.048 177.141 39.04C177.621 38.032 178.285 37.256 179.133 36.712C179.997 36.168 180.997 35.896 182.133 35.896ZM182.109 37.624C181.101 37.624 180.301 37.952 179.709 38.608C179.133 39.248 178.789 40.144 178.677 41.296H185.229C185.229 40.56 185.117 39.92 184.893 39.376C184.669 38.832 184.325 38.408 183.861 38.104C183.413 37.784 182.829 37.624 182.109 37.624ZM199.592 37.912H195.392V49H193.304V37.912H189.152V36.136H199.592V37.912ZM211.191 49H209.055V37.888H205.263C205.103 39.92 204.903 41.656 204.663 43.096C204.423 44.52 204.119 45.68 203.751 46.576C203.383 47.472 202.943 48.128 202.431 48.544C201.919 48.96 201.319 49.168 200.631 49.168C200.423 49.168 200.215 49.152 200.007 49.12C199.815 49.104 199.655 49.064 199.527 49V47.416C199.623 47.448 199.727 47.472 199.839 47.488C199.951 47.504 200.063 47.512 200.175 47.512C200.527 47.512 200.847 47.368 201.135 47.08C201.423 46.792 201.679 46.352 201.903 45.76C202.143 45.168 202.359 44.424 202.551 43.528C202.743 42.616 202.911 41.544 203.055 40.312C203.199 39.08 203.327 37.688 203.439 36.136H211.191V49ZM220.146 35.92C221.714 35.92 222.874 36.264 223.626 36.952C224.378 37.64 224.754 38.736 224.754 40.24V49H223.218L222.81 47.176H222.714C222.346 47.64 221.962 48.032 221.562 48.352C221.178 48.656 220.73 48.88 220.218 49.024C219.722 49.168 219.114 49.24 218.394 49.24C217.626 49.24 216.93 49.104 216.306 48.832C215.698 48.56 215.218 48.144 214.866 47.584C214.514 47.008 214.338 46.288 214.338 45.424C214.338 44.144 214.842 43.16 215.85 42.472C216.858 41.768 218.41 41.384 220.506 41.32L222.69 41.248V40.48C222.69 39.408 222.458 38.664 221.994 38.248C221.53 37.832 220.874 37.624 220.026 37.624C219.354 37.624 218.714 37.728 218.106 37.936C217.498 38.128 216.93 38.352 216.402 38.608L215.754 37.024C216.314 36.72 216.978 36.464 217.746 36.256C218.514 36.032 219.314 35.92 220.146 35.92ZM220.77 42.784C219.17 42.848 218.058 43.104 217.434 43.552C216.826 44 216.522 44.632 216.522 45.448C216.522 46.168 216.738 46.696 217.17 47.032C217.618 47.368 218.186 47.536 218.874 47.536C219.962 47.536 220.866 47.24 221.586 46.648C222.306 46.04 222.666 45.112 222.666 43.864V42.712L220.77 42.784ZM230.84 36.136V41.488H237.824V36.136H239.936V49H237.824V43.264H230.84V49H228.728V36.136H230.84ZM244.009 49V36.136H246.121V41.416H249.457C250.577 41.416 251.497 41.552 252.217 41.824C252.937 42.096 253.473 42.504 253.825 43.048C254.177 43.576 254.353 44.248 254.353 45.064C254.353 45.864 254.177 46.56 253.825 47.152C253.489 47.744 252.953 48.2 252.217 48.52C251.497 48.84 250.545 49 249.361 49H244.009ZM249.169 47.296C250.081 47.296 250.825 47.144 251.401 46.84C251.977 46.52 252.265 45.968 252.265 45.184C252.265 44.4 252.001 43.872 251.473 43.6C250.945 43.312 250.185 43.168 249.193 43.168H246.121V47.296H249.169ZM256.489 49V36.136H258.601V49H256.489ZM270.805 31.864H272.821V41.272C272.821 41.672 272.813 42.112 272.797 42.592C272.797 43.056 272.789 43.52 272.773 43.984C272.757 44.448 272.733 44.864 272.701 45.232C272.685 45.584 272.669 45.856 272.653 46.048H272.749L282.181 31.864H284.581V49H282.565V39.688C282.565 39.256 282.573 38.792 282.589 38.296C282.605 37.784 282.621 37.296 282.637 36.832C282.669 36.352 282.693 35.928 282.709 35.56C282.725 35.192 282.741 34.92 282.757 34.744H282.661L273.205 49H270.805V31.864ZM299.259 39.376C299.259 40.176 299.019 40.8 298.539 41.248C298.059 41.696 297.443 42 296.691 42.16V42.256C297.491 42.368 298.187 42.656 298.779 43.12C299.371 43.568 299.667 44.272 299.667 45.232C299.667 45.776 299.563 46.28 299.355 46.744C299.163 47.208 298.859 47.608 298.443 47.944C298.027 48.28 297.491 48.544 296.835 48.736C296.179 48.912 295.387 49 294.459 49H288.915V36.136H294.435C295.347 36.136 296.163 36.24 296.883 36.448C297.619 36.64 298.195 36.976 298.611 37.456C299.043 37.92 299.259 38.56 299.259 39.376ZM297.483 45.232C297.483 44.496 297.203 43.968 296.643 43.648C296.083 43.328 295.259 43.168 294.171 43.168H291.027V47.296H294.219C295.275 47.296 296.083 47.144 296.643 46.84C297.203 46.52 297.483 45.984 297.483 45.232ZM297.123 39.64C297.123 39.032 296.899 38.592 296.451 38.32C296.019 38.032 295.307 37.888 294.315 37.888H291.027V41.416H293.931C294.971 41.416 295.763 41.272 296.307 40.984C296.851 40.696 297.123 40.248 297.123 39.64ZM307.615 35.92C309.183 35.92 310.343 36.264 311.095 36.952C311.847 37.64 312.223 38.736 312.223 40.24V49H310.687L310.279 47.176H310.183C309.815 47.64 309.431 48.032 309.031 48.352C308.647 48.656 308.199 48.88 307.687 49.024C307.191 49.168 306.583 49.24 305.863 49.24C305.095 49.24 304.399 49.104 303.775 48.832C303.167 48.56 302.687 48.144 302.335 47.584C301.983 47.008 301.807 46.288 301.807 45.424C301.807 44.144 302.311 43.16 303.319 42.472C304.327 41.768 305.879 41.384 307.975 41.32L310.159 41.248V40.48C310.159 39.408 309.927 38.664 309.463 38.248C308.999 37.832 308.343 37.624 307.495 37.624C306.823 37.624 306.183 37.728 305.575 37.936C304.967 38.128 304.399 38.352 303.871 38.608L303.223 37.024C303.783 36.72 304.447 36.464 305.215 36.256C305.983 36.032 306.783 35.92 307.615 35.92ZM308.239 42.784C306.639 42.848 305.527 43.104 304.903 43.552C304.295 44 303.991 44.632 303.991 45.448C303.991 46.168 304.207 46.696 304.639 47.032C305.087 47.368 305.655 47.536 306.343 47.536C307.431 47.536 308.335 47.24 309.055 46.648C309.775 46.04 310.135 45.112 310.135 43.864V42.712L308.239 42.784ZM318.308 36.136V41.488H325.292V36.136H327.404V49H325.292V43.264H318.308V49H316.196V36.136H318.308ZM342.661 42.544C342.661 43.616 342.518 44.568 342.23 45.4C341.958 46.216 341.558 46.912 341.03 47.488C340.518 48.064 339.886 48.504 339.134 48.808C338.398 49.096 337.574 49.24 336.662 49.24C335.814 49.24 335.03 49.096 334.31 48.808C333.59 48.504 332.966 48.064 332.438 47.488C331.91 46.912 331.494 46.216 331.19 45.4C330.902 44.568 330.758 43.616 330.758 42.544C330.758 41.12 330.998 39.92 331.478 38.944C331.958 37.952 332.646 37.2 333.542 36.688C334.438 36.16 335.502 35.896 336.734 35.896C337.902 35.896 338.926 36.16 339.806 36.688C340.702 37.2 341.398 37.952 341.894 38.944C342.406 39.92 342.661 41.12 342.661 42.544ZM332.942 42.544C332.942 43.552 333.07 44.432 333.326 45.184C333.598 45.92 334.014 46.488 334.574 46.888C335.134 47.288 335.846 47.488 336.71 47.488C337.574 47.488 338.286 47.288 338.846 46.888C339.406 46.488 339.814 45.92 340.07 45.184C340.342 44.432 340.478 43.552 340.478 42.544C340.478 41.52 340.342 40.648 340.07 39.928C339.798 39.208 339.382 38.656 338.822 38.272C338.278 37.872 337.566 37.672 336.686 37.672C335.374 37.672 334.422 38.104 333.83 38.968C333.238 39.832 332.942 41.024 332.942 42.544ZM356.353 39.376C356.353 40.176 356.113 40.8 355.633 41.248C355.153 41.696 354.537 42 353.785 42.16V42.256C354.585 42.368 355.281 42.656 355.873 43.12C356.465 43.568 356.761 44.272 356.761 45.232C356.761 45.776 356.657 46.28 356.449 46.744C356.257 47.208 355.953 47.608 355.537 47.944C355.121 48.28 354.585 48.544 353.929 48.736C353.273 48.912 352.481 49 351.553 49H346.009V36.136H351.529C352.441 36.136 353.257 36.24 353.977 36.448C354.713 36.64 355.289 36.976 355.705 37.456C356.137 37.92 356.353 38.56 356.353 39.376ZM354.577 45.232C354.577 44.496 354.297 43.968 353.737 43.648C353.177 43.328 352.353 43.168 351.265 43.168H348.121V47.296H351.313C352.369 47.296 353.177 47.144 353.737 46.84C354.297 46.52 354.577 45.984 354.577 45.232ZM354.217 39.64C354.217 39.032 353.993 38.592 353.545 38.32C353.113 38.032 352.401 37.888 351.409 37.888H348.121V41.416H351.025C352.065 41.416 352.857 41.272 353.401 40.984C353.945 40.696 354.217 40.248 354.217 39.64ZM371.021 42.544C371.021 43.616 370.877 44.568 370.589 45.4C370.317 46.216 369.917 46.912 369.389 47.488C368.877 48.064 368.245 48.504 367.493 48.808C366.757 49.096 365.933 49.24 365.021 49.24C364.173 49.24 363.389 49.096 362.669 48.808C361.949 48.504 361.325 48.064 360.797 47.488C360.269 46.912 359.853 46.216 359.549 45.4C359.261 44.568 359.117 43.616 359.117 42.544C359.117 41.12 359.357 39.92 359.837 38.944C360.317 37.952 361.005 37.2 361.901 36.688C362.797 36.16 363.861 35.896 365.093 35.896C366.261 35.896 367.285 36.16 368.165 36.688C369.061 37.2 369.757 37.952 370.253 38.944C370.765 39.92 371.021 41.12 371.021 42.544ZM361.301 42.544C361.301 43.552 361.429 44.432 361.685 45.184C361.957 45.92 362.373 46.488 362.933 46.888C363.493 47.288 364.205 47.488 365.069 47.488C365.933 47.488 366.645 47.288 367.205 46.888C367.765 46.488 368.173 45.92 368.429 45.184C368.701 44.432 368.837 43.552 368.837 42.544C368.837 41.52 368.701 40.648 368.429 39.928C368.157 39.208 367.741 38.656 367.181 38.272C366.637 37.872 365.925 37.672 365.045 37.672C363.733 37.672 362.781 38.104 362.189 38.968C361.597 39.832 361.301 41.024 361.301 42.544ZM384.784 30.808C384.72 31.608 384.52 32.28 384.184 32.824C383.864 33.368 383.384 33.776 382.744 34.048C382.104 34.32 381.272 34.456 380.248 34.456C379.208 34.456 378.368 34.32 377.728 34.048C377.104 33.776 376.648 33.376 376.36 32.848C376.072 32.304 375.896 31.624 375.832 30.808H377.8C377.88 31.672 378.104 32.256 378.472 32.56C378.856 32.848 379.464 32.992 380.296 32.992C381.032 32.992 381.608 32.84 382.024 32.536C382.456 32.216 382.712 31.64 382.792 30.808H384.784ZM376.36 43.984C376.36 44.128 376.352 44.336 376.336 44.608C376.336 44.864 376.328 45.144 376.312 45.448C376.296 45.736 376.28 46.016 376.264 46.288C376.248 46.544 376.232 46.752 376.216 46.912L383.104 36.136H385.696V49H383.728V41.416C383.728 41.16 383.728 40.824 383.728 40.408C383.744 39.992 383.76 39.584 383.776 39.184C383.792 38.768 383.808 38.456 383.824 38.248L376.984 49H374.368V36.136H376.36V43.984Z" fill="url(#paint0_linear_225_3383)"/>
<defs>
<linearGradient id="paint0_linear_225_3383" x1="-1.47866e-08" y1="25.6403" x2="430.772" y2="25.6403" gradientUnits="userSpaceOnUse">
<stop stop-color="#55C6F7"/>
<stop offset="1" stop-color="#2AF8BA"/>
</linearGradient>
</defs>
</svg>
