<svg width="361" height="29" viewBox="0 0 361 29" fill="none" xmlns="http://www.w3.org/2000/svg">
<path d="M20.8473 28.5366C17.0655 28.5366 13.6032 27.9106 10.4602 26.6585C7.34286 25.3809 4.87705 23.6816 3.06283 21.5608C1.27416 19.4144 0.379829 17.0891 0.379829 14.585C0.379829 12.0809 1.27416 9.75559 3.06283 7.60919C4.87705 5.46279 7.34286 3.76355 10.4602 2.51149C13.6032 1.23387 17.0655 0.595057 20.8473 0.595057C24.2969 0.595057 27.4909 1.14443 30.4294 2.24319C33.3935 3.31639 35.821 4.77287 37.7119 6.61265C39.6283 8.45242 40.8037 10.4711 41.2381 12.6686H36.332C35.6421 10.2666 33.8279 8.47797 30.8894 7.30256C27.9764 6.1016 24.6291 5.50112 20.8473 5.50112C18.2154 5.50112 15.7113 5.84607 13.3349 6.53599C10.9585 7.2259 9.01654 8.26077 7.50895 9.6406C6.02691 10.9949 5.28589 12.643 5.28589 14.585C5.28589 16.527 6.02691 18.1751 7.50895 19.5294C9.01654 20.8837 10.9585 21.9058 13.3349 22.5957C15.7113 23.2856 18.2154 23.6305 20.8473 23.6305C24.6291 23.6305 27.9764 23.0428 30.8894 21.8674C33.8024 20.692 35.6166 18.9161 36.332 16.5398H41.2381C40.8037 18.7373 39.6283 20.7559 37.7119 22.5957C35.821 24.4099 33.3935 25.8536 30.4294 26.9268C27.4909 28 24.2969 28.5366 20.8473 28.5366ZM61.4256 28.5749C58.2827 28.5749 55.3697 28.115 52.6867 27.1951C50.0292 26.2497 47.9212 24.9976 46.3625 23.4389C44.8038 21.8802 44.0244 20.2065 44.0244 18.4179C44.0244 16.6036 44.8038 14.9172 46.3625 13.3585C47.9212 11.7742 50.0292 10.5222 52.6867 9.60228C55.3697 8.65684 58.2827 8.18412 61.4256 8.18412C64.5685 8.18412 67.4687 8.65684 70.1262 9.60228C72.7836 10.5222 74.8917 11.7742 76.4504 13.3585C78.0091 14.9172 78.7885 16.6036 78.7885 18.4179C78.7885 20.2065 78.0091 21.8802 76.4504 23.4389C74.8917 24.9976 72.7709 26.2497 70.0879 27.1951C67.4304 28.115 64.543 28.5749 61.4256 28.5749ZM49.0071 18.3029C49.0071 19.4527 49.6332 20.462 50.8852 21.3308C52.1373 22.1996 53.7216 22.864 55.638 23.3239C57.58 23.7839 59.5092 24.0138 61.4256 24.0138C63.2909 24.0138 65.1818 23.7966 67.0982 23.3622C69.0402 22.9023 70.6372 22.2507 71.8893 21.4075C73.1669 20.5387 73.8057 19.5294 73.8057 18.3795C73.8057 17.2552 73.1669 16.2715 71.8893 15.4282C70.6372 14.5594 69.0402 13.8951 67.0982 13.4351C65.1818 12.9752 63.2909 12.7452 61.4256 12.7452C59.5347 12.7452 57.6183 12.9752 55.6763 13.4351C53.7599 13.8695 52.1629 14.5083 50.8852 15.3516C49.6332 16.1948 49.0071 17.1786 49.0071 18.3029ZM81.8335 8.8357H86.4329L86.8162 11.0971C88.196 10.1517 89.7419 9.44896 91.454 8.98902C93.1915 8.50352 95.0057 8.26077 96.8966 8.26077C99.5541 8.26077 102.109 8.69517 104.562 9.56395C107.041 10.4327 109.034 11.6337 110.542 13.1668C112.075 14.6744 112.841 16.3737 112.841 18.2645V28H107.859V19.1461C107.705 17.7918 107.079 16.642 105.98 15.6965C104.907 14.7511 103.553 14.0356 101.918 13.5501C100.282 13.0646 98.5703 12.8219 96.7816 12.8219C95.0185 12.8219 93.3704 13.0518 91.8372 13.5118C90.3297 13.9717 89.1159 14.6489 88.196 15.5432C87.2761 16.4375 86.8162 17.5107 86.8162 18.7628V28H81.8335V8.8357ZM116.045 8.8357H120.644L121.027 11.0971C122.407 10.1517 123.953 9.44896 125.665 8.98902C127.403 8.50352 129.217 8.26077 131.108 8.26077C133.765 8.26077 136.321 8.69517 138.774 9.56395C141.252 10.4327 143.245 11.6337 144.753 13.1668C146.286 14.6744 147.053 16.3737 147.053 18.2645V28H142.07V19.1461C141.917 17.7918 141.291 16.642 140.192 15.6965C139.119 14.7511 137.764 14.0356 136.129 13.5501C134.494 13.0646 132.782 12.8219 130.993 12.8219C129.23 12.8219 127.582 13.0518 126.048 13.5118C124.541 13.9717 123.327 14.6489 122.407 15.5432C121.487 16.4375 121.027 17.5107 121.027 18.7628V28H116.045V8.8357ZM165.434 28.5749C162.649 28.5749 160.068 28.115 157.692 27.1951C155.341 26.2752 153.476 25.0359 152.096 23.4772C150.716 21.9185 150.026 20.2448 150.026 18.4562C150.026 16.642 150.716 14.9555 152.096 13.3968C153.476 11.8381 155.341 10.5988 157.692 9.67893C160.068 8.73349 162.649 8.26077 165.434 8.26077C168.219 8.26077 170.787 8.72072 173.138 9.6406C175.489 10.5605 177.354 11.7998 178.734 13.3585C180.14 14.9172 180.842 16.6036 180.842 18.4179C180.842 19.1333 180.791 19.7466 180.689 20.2576L155.545 20.296C156.261 21.5225 157.59 22.4679 159.532 23.1323C161.473 23.7966 163.441 24.1288 165.434 24.1288C167.402 24.1288 169.203 23.9755 170.838 23.6689C172.474 23.3622 173.943 22.8384 175.246 22.0974L178.926 24.8187C177.699 26.0197 175.834 26.9524 173.33 27.6167C170.826 28.2555 168.194 28.5749 165.434 28.5749ZM175.476 16.6164C174.786 15.3643 173.458 14.4061 171.49 13.7418C169.548 13.0518 167.529 12.7069 165.434 12.7069C163.415 12.7069 161.435 13.0518 159.493 13.7418C157.551 14.4061 156.222 15.3516 155.507 16.5781L175.476 16.6164ZM201.384 28.5749C198.241 28.5749 195.328 28.115 192.645 27.1951C189.987 26.2497 187.866 24.9976 186.282 23.4389C184.723 21.8802 183.944 20.2065 183.944 18.4179C183.944 16.6036 184.723 14.9172 186.282 13.3585C187.866 11.7742 189.987 10.5222 192.645 9.60228C195.328 8.65684 198.241 8.18412 201.384 8.18412C204.143 8.18412 206.737 8.55463 209.164 9.29565C211.592 10.0367 213.623 11.046 215.259 12.3236C216.894 13.6012 217.942 14.9938 218.402 16.5014H213.304C212.614 15.2494 211.132 14.3167 208.858 13.7034C206.609 13.0646 204.118 12.7452 201.384 12.7452C199.442 12.7452 197.512 12.9752 195.596 13.4351C193.705 13.8951 192.146 14.5594 190.92 15.4282C189.693 16.2715 189.08 17.2552 189.08 18.3795C189.08 19.5038 189.693 20.5004 190.92 21.3692C192.146 22.2124 193.705 22.864 195.596 23.3239C197.512 23.7839 199.442 24.0138 201.384 24.0138C204.092 24.0138 206.558 23.7072 208.781 23.0939C211.03 22.4551 212.537 21.5097 213.304 20.2576H218.44C217.98 21.7652 216.932 23.1578 215.297 24.4354C213.662 25.6875 211.617 26.6968 209.164 27.4634C206.737 28.2044 204.143 28.5749 201.384 28.5749ZM263.389 28.5749C260.604 28.5749 258.023 28.115 255.647 27.1951C253.296 26.2752 251.431 25.0359 250.051 23.4772C248.671 21.9185 247.981 20.2448 247.981 18.4562C247.981 16.642 248.671 14.9555 250.051 13.3968C251.431 11.8381 253.296 10.5988 255.647 9.67893C258.023 8.73349 260.604 8.26077 263.389 8.26077C266.174 8.26077 268.742 8.72072 271.093 9.6406C273.444 10.5605 275.309 11.7998 276.689 13.3585C278.095 14.9172 278.797 16.6036 278.797 18.4179C278.797 19.1333 278.746 19.7466 278.644 20.2576L253.5 20.296C254.216 21.5225 255.545 22.4679 257.487 23.1323C259.428 23.7966 261.396 24.1288 263.389 24.1288C265.357 24.1288 267.158 23.9755 268.793 23.6689C270.429 23.3622 271.898 22.8384 273.201 22.0974L276.881 24.8187C275.654 26.0197 273.789 26.9524 271.285 27.6167C268.781 28.2555 266.149 28.5749 263.389 28.5749ZM273.431 16.6164C272.741 15.3643 271.413 14.4061 269.445 13.7418C267.503 13.0518 265.484 12.7069 263.389 12.7069C261.37 12.7069 259.39 13.0518 257.448 13.7418C255.506 14.4061 254.177 15.3516 253.462 16.5781L273.431 16.6164ZM297.192 28.5749C294.381 28.5749 291.788 28.115 289.412 27.1951C287.061 26.2497 285.195 24.9976 283.816 23.4389C282.436 21.8802 281.746 20.2065 281.746 18.4179C281.746 16.6036 282.436 14.9172 283.816 13.3585C285.195 11.7742 287.061 10.5222 289.412 9.60228C291.788 8.65684 294.381 8.18412 297.192 8.18412C299.211 8.18412 301.127 8.43964 302.942 8.95069C304.756 9.43619 306.366 10.1261 307.771 11.0204L308.116 8.8357H312.6V28H308.116L307.809 25.7386C306.378 26.6329 304.756 27.3356 302.942 27.8467C301.127 28.3322 299.211 28.5749 297.192 28.5749ZM286.652 18.3795C286.652 19.4272 287.137 20.3854 288.108 21.2542C289.079 22.0974 290.37 22.7745 291.98 23.2856C293.589 23.7711 295.327 24.0138 297.192 24.0138C299.058 24.0138 300.795 23.7711 302.405 23.2856C304.015 22.7745 305.305 22.0974 306.276 21.2542C307.247 20.3854 307.733 19.4272 307.733 18.3795C307.733 17.4341 307.234 16.527 306.238 15.6582C305.267 14.7894 303.964 14.0867 302.328 13.5501C300.718 13.0135 299.006 12.7452 297.192 12.7452C295.352 12.7452 293.615 13.0135 291.98 13.5501C290.37 14.0867 289.079 14.7894 288.108 15.6582C287.137 16.527 286.652 17.4341 286.652 18.3795ZM315.605 8.8357H320.128L320.511 10.9054C322.785 9.16789 325.43 8.2991 328.445 8.2991C330.464 8.2991 332.38 8.68239 334.194 9.44896C336.034 10.19 337.491 11.1482 338.564 12.3236C339.688 11.046 341.157 10.0494 342.972 9.33398C344.786 8.61851 346.715 8.26077 348.759 8.26077C350.88 8.26077 352.873 8.72072 354.738 9.6406C356.604 10.5605 358.099 11.787 359.223 13.3201C360.347 14.8533 360.909 16.5014 360.909 18.2645V28H356.003V18.9161C355.876 17.5618 355.441 16.4248 354.7 15.5049C353.959 14.5594 353.026 13.8567 351.902 13.3968C350.803 12.9369 349.628 12.7069 348.376 12.7069C347.124 12.7069 345.936 12.9369 344.811 13.3968C343.687 13.8567 342.78 14.5467 342.09 15.4666C341.426 16.3609 341.093 17.4213 341.093 18.6478V28H336.187V18.6478C336.034 16.7569 335.191 15.3005 333.658 14.2784C332.125 13.2563 330.323 12.7452 328.253 12.7452C326.925 12.7452 325.66 12.9752 324.459 13.4351C323.283 13.8951 322.325 14.5722 321.584 15.4666C320.869 16.3353 320.511 17.383 320.511 18.6095V28H315.605V8.8357Z" fill="white"/>
<path d="M233.17 28C232.199 28 231.189 27.7445 230.142 27.2334C229.12 26.6968 228.264 26.0069 227.574 25.1637C226.884 24.2949 226.539 23.375 226.539 22.404V13.3968H220.751V8.8357H226.539V1.16998H231.522V8.8357H245.588V13.3968H231.522V20.7559C231.522 21.548 231.675 22.1996 231.982 22.7107C232.288 23.2217 232.876 23.4772 233.745 23.4772L239.686 23.4389V27.9617L233.17 28Z" fill="url(#paint0_linear_225_3494)"/>
<defs>
<linearGradient id="paint0_linear_225_3494" x1="228.214" y1="13.1849" x2="245.428" y2="13.1849" gradientUnits="userSpaceOnUse">
<stop stop-color="#55C6F7"/>
<stop offset="1" stop-color="#2AF8BA"/>
</linearGradient>
</defs>
</svg>
