<svg width="53" height="53" viewBox="0 0 53 53" fill="none" xmlns="http://www.w3.org/2000/svg">
<path d="M26.5808 26.0627C22.9993 26.0627 19.9333 24.7875 17.3828 22.237C14.8323 19.6865 13.557 16.6204 13.557 13.0389C13.557 9.45733 14.8323 6.39131 17.3828 3.84081C19.9333 1.29031 22.9993 0.0150604 26.5808 0.0150604C30.1624 0.0150604 33.2284 1.29031 35.7789 3.84081C38.3294 6.39131 39.6047 9.45733 39.6047 13.0389C39.6047 16.6204 38.3294 19.6865 35.7789 22.237C33.2284 24.7875 30.1624 26.0627 26.5808 26.0627ZM0.533203 52.1103V42.9937C0.533203 41.1486 1.00857 39.4534 1.95931 37.9079C2.91005 36.3624 4.17119 35.1815 5.74273 34.3654C9.10722 32.6831 12.526 31.422 15.999 30.582C19.472 29.7419 22.9993 29.3208 26.5808 29.3187C30.1624 29.3187 33.6897 29.7398 37.1627 30.582C40.6357 31.4242 44.0545 32.6853 47.4189 34.3654C48.9927 35.1794 50.2549 36.3602 51.2056 37.9079C52.1564 39.4555 52.6306 41.1508 52.6285 42.9937V52.1103H0.533203ZM7.04511 45.5984H46.1166V42.9937C46.1166 42.3967 45.9679 41.8541 45.6705 41.3657C45.3731 40.8773 44.9792 40.4974 44.4886 40.2261C41.5582 38.7609 38.6007 37.6626 35.6161 36.9311C32.6315 36.1996 29.6197 35.8327 26.5808 35.8306C23.5419 35.8306 20.5302 36.1974 17.5456 36.9311C14.5609 37.6648 11.6034 38.7631 8.67309 40.2261C8.1847 40.4974 7.79073 40.8773 7.49118 41.3657C7.19163 41.8541 7.04294 42.3967 7.04511 42.9937V45.5984ZM26.5808 19.5508C28.3716 19.5508 29.9052 18.9137 31.1815 17.6395C32.4578 16.3654 33.0949 14.8318 33.0927 13.0389C33.0927 11.2481 32.4557 9.71564 31.1815 8.44147C29.9073 7.16731 28.3738 6.52914 26.5808 6.52697C24.7901 6.52697 23.2576 7.16514 21.9834 8.44147C20.7093 9.71781 20.0711 11.2503 20.0689 13.0389C20.0689 14.8297 20.7071 16.3632 21.9834 17.6395C23.2598 18.9159 24.7922 19.553 26.5808 19.5508Z" fill="url(#paint0_linear_225_3738)"/>
<defs>
<linearGradient id="paint0_linear_225_3738" x1="0.533203" y1="25.7504" x2="56.3571" y2="25.7504" gradientUnits="userSpaceOnUse">
<stop stop-color="#55C6F7"/>
<stop offset="1" stop-color="#2AF8BA"/>
</linearGradient>
</defs>
</svg>
