<svg width="29" height="51" viewBox="0 0 29 51" fill="none" xmlns="http://www.w3.org/2000/svg">
<path d="M14.665 0.266619C6.7931 0.266618 0.404296 6.65542 0.404294 14.5273C0.404294 15.1577 0.654705 15.7622 1.10044 16.208C1.54617 16.6537 2.15072 16.9041 2.78108 16.9041C3.41144 16.9041 4.01599 16.6537 4.46172 16.208C4.90746 15.7622 5.15787 15.1577 5.15787 14.5273C5.15787 9.27939 9.41707 5.02019 14.665 5.02019C19.913 5.02019 24.1722 9.2794 24.1722 14.5273C24.1722 17.0539 23.5542 18.6677 22.7176 19.9155C21.8619 21.1918 20.7329 22.1806 19.2902 23.4403L19.0431 23.6566C17.5528 24.9614 15.8011 26.5325 14.4749 28.7762C13.1201 31.0698 12.2882 33.91 12.2882 37.701L12.2882 38.2952C12.2882 38.9256 12.5386 39.5301 12.9844 39.9758C13.4301 40.4216 14.0346 40.672 14.665 40.672C15.2954 40.672 15.8999 40.4216 16.3457 39.9758C16.7914 39.5301 17.0418 38.9256 17.0418 38.2952L17.0418 37.701C17.0418 34.6587 17.6954 32.6717 18.5677 31.1957C19.4709 29.6698 20.6902 28.5314 22.1733 27.2336L22.5132 26.9365C23.8584 25.7672 25.4461 24.3839 26.6654 22.5633C28.0558 20.4883 28.9257 17.9428 28.9257 14.5273C28.9257 6.65542 22.5369 0.266621 14.665 0.266619ZM14.665 50.7733C15.453 50.7733 16.2086 50.4603 16.7658 49.9032C17.323 49.346 17.636 48.5903 17.636 47.8023C17.636 47.0144 17.323 46.2587 16.7658 45.7015C16.2086 45.1444 15.453 44.8314 14.665 44.8314C13.8771 44.8314 13.1214 45.1444 12.5642 45.7015C12.007 46.2587 11.694 47.0144 11.694 47.8023C11.694 48.5903 12.007 49.346 12.5642 49.9032C13.1214 50.4603 13.8771 50.7733 14.665 50.7733Z" fill="url(#paint0_linear_225_3743)"/>
<defs>
<linearGradient id="paint0_linear_225_3743" x1="0.404293" y1="25.2172" x2="30.9671" y2="25.2172" gradientUnits="userSpaceOnUse">
<stop stop-color="#55C6F7"/>
<stop offset="1" stop-color="#2AF8BA"/>
</linearGradient>
</defs>
</svg>
