<svg width="236" height="28" viewBox="0 0 236 28" fill="none" xmlns="http://www.w3.org/2000/svg">
<path d="M22.3803 20.3985C21.8335 21.8568 21.0522 23.1198 20.0366 24.1875C19.021 25.2292 17.8231 26.0234 16.4429 26.5703C15.0888 27.1172 13.6044 27.3906 11.9898 27.3906C9.54194 27.3906 7.41957 26.8568 5.62271 25.7891C3.8519 24.6953 2.4717 23.1589 1.48213 21.1798C0.518601 19.2006 0.0368358 16.8439 0.0368358 14.1095C0.0368358 11.3752 0.518601 9.01843 1.48213 7.03928C2.4717 5.06014 3.8519 3.53672 5.62271 2.46902C7.41957 1.37528 9.5159 0.828416 11.9117 0.828416C13.5784 0.828416 15.0627 1.06279 16.3648 1.53153C17.6668 1.97424 18.7736 2.65131 19.6851 3.56276C20.6225 4.44817 21.3647 5.5419 21.9116 6.84397L18.8257 8.28927C18.2528 6.80491 17.4195 5.68513 16.3257 4.92993C15.258 4.14869 13.8648 3.75807 12.1461 3.75807C10.4013 3.75807 8.86486 4.17473 7.53675 5.00806C6.20864 5.81534 5.16699 6.9872 4.41179 8.52364C3.68263 10.0601 3.31805 11.922 3.31805 14.1095C3.31805 16.271 3.66961 18.1329 4.37273 19.6954C5.07584 21.2318 6.07844 22.4167 7.3805 23.25C8.68257 24.0573 10.219 24.461 11.9898 24.461C13.7086 24.461 15.2059 24.0313 16.482 23.1719C17.758 22.2865 18.6825 20.9714 19.2554 19.2266L22.3803 20.3985ZM35.8781 7.07834C37.7271 7.07834 39.3546 7.48199 40.7609 8.28927C42.1931 9.09655 43.3129 10.2684 44.1202 11.8049C44.9275 13.3153 45.3311 15.1251 45.3311 17.2345C45.3311 19.3438 44.9275 21.1667 44.1202 22.7032C43.3129 24.2136 42.1931 25.3724 40.7609 26.1797C39.3546 26.987 37.7271 27.3906 35.8781 27.3906C34.0552 27.3906 32.4276 26.987 30.9954 26.1797C29.5631 25.3724 28.4433 24.2136 27.636 22.7032C26.8287 21.1667 26.4251 19.3438 26.4251 17.2345C26.4251 15.1251 26.8287 13.3153 27.636 11.8049C28.4433 10.2684 29.5631 9.09655 30.9954 8.28927C32.4276 7.48199 34.0552 7.07834 35.8781 7.07834ZM35.8781 9.77363C34.55 9.77363 33.4172 10.0731 32.4797 10.6721C31.5422 11.271 30.8131 12.1304 30.2922 13.2502C29.7975 14.3439 29.5501 15.672 29.5501 17.2345C29.5501 18.7709 29.7975 20.099 30.2922 21.2188C30.8131 22.3386 31.5422 23.198 32.4797 23.7969C33.4172 24.3959 34.55 24.6953 35.8781 24.6953C37.2062 24.6953 38.339 24.3959 39.2765 23.7969C40.214 23.198 40.9301 22.3386 41.4249 21.2188C41.9458 20.099 42.2062 18.7709 42.2062 17.2345C42.2062 15.672 41.9458 14.3439 41.4249 13.2502C40.9301 12.1304 40.214 11.271 39.2765 10.6721C38.339 10.0731 37.2062 9.77363 35.8781 9.77363ZM51.2142 27V7.46897H53.9486L54.222 11.8439L53.7142 11.4142C54.1309 10.3726 54.6908 9.53926 55.3939 8.91426C56.097 8.26323 56.9043 7.79448 57.8157 7.50803C58.7532 7.22157 59.7168 7.07834 60.7063 7.07834C62.1126 7.07834 63.3886 7.35178 64.5344 7.89865C65.6802 8.41948 66.5917 9.22676 67.2688 10.3205C67.9719 11.4142 68.3234 12.8074 68.3234 14.5001V27H65.1985V15.5939C65.1985 13.4324 64.7297 11.9351 63.7922 11.1017C62.8808 10.2424 61.748 9.81269 60.3938 9.81269C59.4563 9.81269 58.5189 10.034 57.5814 10.4767C56.6439 10.9194 55.8626 11.6356 55.2376 12.6252C54.6387 13.6147 54.3392 14.9428 54.3392 16.6095V27H51.2142ZM75.3992 27V7.46897H78.1335L78.4069 11.8439L77.8991 11.4142C78.3158 10.3726 78.8757 9.53926 79.5788 8.91426C80.2819 8.26323 81.0892 7.79448 82.0006 7.50803C82.9381 7.22157 83.9017 7.07834 84.8912 7.07834C86.2975 7.07834 87.5735 7.35178 88.7193 7.89865C89.8651 8.41948 90.7766 9.22676 91.4537 10.3205C92.1568 11.4142 92.5083 12.8074 92.5083 14.5001V27H89.3834V15.5939C89.3834 13.4324 88.9146 11.9351 87.9771 11.1017C87.0657 10.2424 85.9329 9.81269 84.5787 9.81269C83.6413 9.81269 82.7038 10.034 81.7663 10.4767C80.8288 10.9194 80.0475 11.6356 79.4226 12.6252C78.8236 13.6147 78.5241 14.9428 78.5241 16.6095V27H75.3992ZM107.748 27.3906C105.899 27.3906 104.245 26.987 102.787 26.1797C101.355 25.3724 100.235 24.2136 99.4278 22.7032C98.6205 21.1667 98.2169 19.3438 98.2169 17.2345C98.2169 15.1251 98.6205 13.3153 99.4278 11.8049C100.235 10.2684 101.342 9.09655 102.748 8.28927C104.154 7.48199 105.756 7.07834 107.553 7.07834C109.376 7.07834 110.925 7.46897 112.201 8.25021C113.503 9.03145 114.493 10.0991 115.17 11.4533C115.847 12.7814 116.185 14.2788 116.185 15.9454C116.185 16.3881 116.172 16.7918 116.146 17.1564C116.12 17.5209 116.081 17.8465 116.029 18.1329H100.248V15.3595H114.662L113.06 15.672C113.06 13.797 112.54 12.3517 111.498 11.3361C110.482 10.3205 109.141 9.81269 107.475 9.81269C106.199 9.81269 105.092 10.1122 104.154 10.7111C103.243 11.284 102.527 12.1304 102.006 13.2502C101.511 14.3439 101.264 15.672 101.264 17.2345C101.264 18.7709 101.524 20.099 102.045 21.2188C102.566 22.3386 103.295 23.198 104.232 23.7969C105.196 24.3698 106.342 24.6563 107.67 24.6563C109.102 24.6563 110.261 24.3828 111.146 23.836C112.058 23.2891 112.787 22.5469 113.334 21.6094L115.795 23.0547C115.3 23.9401 114.662 24.7084 113.881 25.3594C113.126 26.0104 112.227 26.5182 111.185 26.8828C110.17 27.2214 109.024 27.3906 107.748 27.3906ZM130.215 7.07834C131.569 7.07834 132.754 7.28668 133.769 7.70334C134.811 8.12 135.709 8.71895 136.464 9.50019C137.22 10.2814 137.832 11.2059 138.3 12.2736L135.332 13.6798C134.915 12.4298 134.277 11.4793 133.418 10.8283C132.584 10.1512 131.491 9.81269 130.136 9.81269C128.834 9.81269 127.715 10.1122 126.777 10.7111C125.84 11.284 125.123 12.1304 124.629 13.2502C124.134 14.3439 123.886 15.672 123.886 17.2345C123.886 18.7709 124.134 20.099 124.629 21.2188C125.123 22.3386 125.84 23.198 126.777 23.7969C127.715 24.3698 128.834 24.6563 130.136 24.6563C131.152 24.6563 132.024 24.5 132.754 24.1875C133.509 23.875 134.121 23.4193 134.589 22.8204C135.084 22.2214 135.423 21.4922 135.605 20.6329L138.496 21.6485C138.053 22.8464 137.441 23.875 136.66 24.7344C135.905 25.5938 134.98 26.2578 133.886 26.7266C132.819 27.1693 131.595 27.3906 130.215 27.3906C128.392 27.3906 126.764 26.987 125.332 26.1797C123.899 25.3724 122.78 24.2136 121.972 22.7032C121.165 21.1667 120.762 19.3438 120.762 17.2345C120.762 15.1251 121.165 13.3153 121.972 11.8049C122.78 10.2684 123.899 9.09655 125.332 8.28927C126.764 7.48199 128.392 7.07834 130.215 7.07834ZM168.515 27.3906C166.667 27.3906 165.013 26.987 163.555 26.1797C162.122 25.3724 161.003 24.2136 160.195 22.7032C159.388 21.1667 158.984 19.3438 158.984 17.2345C158.984 15.1251 159.388 13.3153 160.195 11.8049C161.003 10.2684 162.109 9.09655 163.516 8.28927C164.922 7.48199 166.523 7.07834 168.32 7.07834C170.143 7.07834 171.693 7.46897 172.969 8.25021C174.271 9.03145 175.26 10.0991 175.937 11.4533C176.614 12.7814 176.953 14.2788 176.953 15.9454C176.953 16.3881 176.94 16.7918 176.914 17.1564C176.888 17.5209 176.849 17.8465 176.797 18.1329H161.016V15.3595H175.429L173.828 15.672C173.828 13.797 173.307 12.3517 172.265 11.3361C171.25 10.3205 169.909 9.81269 168.242 9.81269C166.966 9.81269 165.859 10.1122 164.922 10.7111C164.01 11.284 163.294 12.1304 162.773 13.2502C162.279 14.3439 162.031 15.672 162.031 17.2345C162.031 18.7709 162.292 20.099 162.812 21.2188C163.333 22.3386 164.062 23.198 165 23.7969C165.963 24.3698 167.109 24.6563 168.437 24.6563C169.87 24.6563 171.028 24.3828 171.914 23.836C172.825 23.2891 173.555 22.5469 174.101 21.6094L176.562 23.0547C176.067 23.9401 175.429 24.7084 174.648 25.3594C173.893 26.0104 172.995 26.5182 171.953 26.8828C170.937 27.2214 169.792 27.3906 168.515 27.3906ZM194.302 14.383C194.302 12.9246 193.912 11.8049 193.13 11.0236C192.349 10.2163 191.242 9.81269 189.81 9.81269C188.456 9.81269 187.31 10.1122 186.373 10.7111C185.435 11.284 184.745 12.2215 184.302 13.5236L181.763 11.9611C182.284 10.5028 183.248 9.33093 184.654 8.44552C186.06 7.53407 187.805 7.07834 189.888 7.07834C191.294 7.07834 192.57 7.32574 193.716 7.82052C194.862 8.28927 195.761 9.01843 196.412 10.008C197.089 10.9715 197.427 12.2215 197.427 13.758V23.211C197.427 24.1485 197.922 24.6172 198.912 24.6172C199.406 24.6172 199.888 24.5521 200.357 24.4219L200.201 26.8828C199.68 27.1432 199.003 27.2734 198.169 27.2734C197.414 27.2734 196.737 27.1302 196.138 26.8438C195.539 26.5573 195.07 26.1276 194.732 25.5547C194.393 24.9558 194.224 24.2136 194.224 23.3282V22.9375L195.005 23.0547C194.693 24.0703 194.159 24.9037 193.404 25.5547C192.649 26.1797 191.802 26.6484 190.865 26.9609C189.927 27.2474 189.003 27.3906 188.091 27.3906C186.946 27.3906 185.878 27.1953 184.888 26.8047C183.899 26.4141 183.104 25.8281 182.506 25.0469C181.933 24.2396 181.646 23.25 181.646 22.0782C181.646 20.6199 182.128 19.422 183.091 18.4845C184.081 17.5209 185.448 16.8699 187.193 16.5314L194.927 15.0079V17.586L188.638 18.8751C187.362 19.1355 186.412 19.5001 185.787 19.9688C185.162 20.4376 184.849 21.0886 184.849 21.9219C184.849 22.7292 185.162 23.3933 185.787 23.9141C186.438 24.4089 187.349 24.6563 188.521 24.6563C189.276 24.6563 189.992 24.5651 190.669 24.3828C191.373 24.1745 191.998 23.875 192.544 23.4844C193.091 23.0678 193.521 22.5599 193.834 21.961C194.146 21.336 194.302 20.6068 194.302 19.7735V14.383ZM205.021 27V7.46897H207.755L207.951 10.5158C208.654 9.3179 209.565 8.44552 210.685 7.89865C211.831 7.35178 213.003 7.07834 214.201 7.07834C215.581 7.07834 216.883 7.39084 218.107 8.01584C219.331 8.64083 220.268 9.60436 220.919 10.9064C221.336 10.021 221.922 9.30488 222.677 8.75802C223.432 8.1851 224.253 7.76844 225.138 7.50803C226.05 7.22157 226.909 7.07834 227.716 7.07834C228.966 7.07834 230.151 7.33876 231.271 7.85959C232.417 8.38041 233.354 9.1877 234.083 10.2814C234.812 11.3752 235.177 12.7814 235.177 14.5001V27H232.052V14.8126C232.052 13.0418 231.609 11.7658 230.724 10.9846C229.839 10.2033 228.745 9.81269 227.443 9.81269C226.427 9.81269 225.477 10.0601 224.591 10.5549C223.706 11.0497 222.99 11.7788 222.443 12.7423C221.922 13.7059 221.662 14.8908 221.662 16.297V27H218.537V14.8126C218.537 13.0418 218.094 11.7658 217.208 10.9846C216.323 10.2033 215.229 9.81269 213.927 9.81269C213.068 9.81269 212.183 10.0471 211.271 10.5158C210.386 10.9585 209.643 11.6746 209.045 12.6642C208.446 13.6538 208.146 14.9559 208.146 16.5704V27H205.021Z" fill="white"/>
<path d="M148.596 1.92215V21.6094C148.596 22.573 148.869 23.2891 149.416 23.7578C149.963 24.2266 150.666 24.461 151.526 24.461C152.281 24.461 152.932 24.3308 153.479 24.0703C154.026 23.8099 154.52 23.4584 154.963 23.0157L156.057 25.6328C155.458 26.1797 154.742 26.6094 153.908 26.9219C153.101 27.2344 152.164 27.3906 151.096 27.3906C150.106 27.3906 149.182 27.2214 148.323 26.8828C147.463 26.5182 146.773 25.9583 146.252 25.2031C145.757 24.4219 145.497 23.4063 145.471 22.1563V2.78152L148.596 1.92215ZM155.705 7.46897V10.1642H141.565V7.46897H155.705Z" fill="url(#paint0_linear_225_3386)"/>
<defs>
<linearGradient id="paint0_linear_225_3386" x1="138.5" y1="14" x2="166" y2="14" gradientUnits="userSpaceOnUse">
<stop stop-color="#21BCFF"/>
<stop offset="1" stop-color="#2AF8BA"/>
</linearGradient>
</defs>
</svg>
