<svg width="38" height="40" viewBox="0 0 38 40" fill="none" xmlns="http://www.w3.org/2000/svg">
<path d="M26.5542 4.47891H32.2205C33.2224 4.47891 34.1833 4.87691 34.8917 5.58534C35.6001 6.29377 35.9981 7.25461 35.9981 8.25648V10.1453M26.5542 34.6995H32.2205C33.2224 34.6995 34.1833 34.3015 34.8917 33.593C35.6001 32.8846 35.9981 31.9238 35.9981 30.9219V29.0331M26.5561 19.5892H36M36 19.5892L32.2224 15.8116M36 19.5892L32.2224 23.3668M4.69152 33.6191L16.0242 37.0189C16.5884 37.1882 17.1843 37.2233 17.7644 37.1213C18.3445 37.0193 18.8928 36.7831 19.3653 36.4315C19.8379 36.0798 20.2216 35.6226 20.486 35.0962C20.7504 34.5699 20.888 33.989 20.8878 33.4V5.7784C20.888 5.18938 20.7504 4.6085 20.486 4.08214C20.2216 3.55578 19.8379 3.09854 19.3653 2.74692C18.8928 2.39531 18.3445 2.15907 17.7644 2.05707C17.1843 1.95507 16.5884 1.99015 16.0242 2.15949L4.69152 5.5593C3.91338 5.79288 3.23127 6.2711 2.74643 6.92301C2.26158 7.57491 1.99982 8.36577 2 9.17821V30.0002C1.99982 30.8126 2.26158 31.6035 2.74643 32.2554C3.23127 32.9073 3.91338 33.3855 4.69152 33.6191Z" stroke="#303030" stroke-width="3.77757" stroke-linecap="round" stroke-linejoin="round"/>
</svg>
