<svg width="19" height="15" viewBox="0 0 19 15" fill="none" xmlns="http://www.w3.org/2000/svg">
<path d="M0 3.39397C-0.000239352 3.25958 0.0394278 3.12815 0.113974 3.01634C0.18852 2.90452 0.294587 2.81736 0.418729 2.7659C0.542872 2.71444 0.679498 2.701 0.811288 2.72729C0.943078 2.75357 1.0641 2.81839 1.159 2.91354L4.29875 6.05451L4.24808 6.1269L4.65771 6.41361L5.01134 6.06012L0 3.39397ZM0 3.39397V12.2154M0 3.39397V12.2154M0 12.2154C0 12.9353 0.28597 13.6257 0.794997 14.1347M0 12.2154L0.794997 14.1347M0.794997 14.1347C1.30402 14.6437 1.99441 14.9297 2.71429 14.9297M0.794997 14.1347L2.71429 14.9297M2.71429 14.9297H16.2857M2.71429 14.9297H16.2857M16.2857 14.9297C17.0056 14.9297 17.696 14.6437 18.205 14.1347M16.2857 14.9297L18.205 14.1347M18.205 14.1347C18.714 13.6257 19 12.9353 19 12.2154M18.205 14.1347L19 12.2154M19 12.2154V3.39397V12.2154ZM9.64643 0.576365L9.6468 0.576889L13.9327 6.70032L14.2745 7.18869L14.6959 6.76709L18.1946 3.26702L18.195 3.26664C18.22 3.24161 18.2518 3.22455 18.2865 3.21763C18.3212 3.21071 18.3571 3.21425 18.3898 3.22779C18.4225 3.24133 18.4504 3.26427 18.47 3.2937C18.4896 3.32312 18.5001 3.3577 18.5 3.39307V3.39397V12.2154C18.5 12.8027 18.2667 13.3659 17.8514 13.7811C17.4362 14.1964 16.873 14.4297 16.2857 14.4297H2.71429C2.12702 14.4297 1.56381 14.1964 1.14855 13.7811C0.733291 13.3659 0.500001 12.8027 0.500001 12.2154L0.500002 3.39397L0.5 3.39307C0.499937 3.35771 0.510376 3.32312 0.529993 3.2937C0.54961 3.26427 0.577522 3.24133 0.610192 3.22779C0.642861 3.21425 0.678815 3.21071 0.713497 3.21763C0.748179 3.22455 0.780026 3.24161 0.805 3.26664L0.805379 3.26702L4.30409 6.76709L4.72553 7.18869L5.06735 6.70032L9.35321 0.576889L9.35357 0.576365C9.37003 0.552785 9.39194 0.533531 9.41743 0.520238C9.44292 0.506943 9.47125 0.5 9.5 0.5C9.52875 0.5 9.55708 0.506943 9.58257 0.520238C9.60806 0.533531 9.62997 0.552785 9.64643 0.576365Z" stroke="url(#paint0_linear_97_1161)"/>
<defs>
<linearGradient id="paint0_linear_97_1161" x1="-6.98871e-10" y1="7.37534" x2="20.3599" y2="7.37534" gradientUnits="userSpaceOnUse">
<stop stop-color="#55C6F7"/>
<stop offset="1" stop-color="#2AF8BA"/>
</linearGradient>
</defs>
</svg>
