<svg width="18" height="13" viewBox="0 0 18 13" fill="none" xmlns="http://www.w3.org/2000/svg">
<path d="M17.0684 0.531066C17.3922 0.837156 17.5811 1.2593 17.5937 1.70468C17.6063 2.15006 17.4416 2.58221 17.1356 2.90613L8.86593 11.7972C8.7116 11.9603 8.52613 12.0909 8.3205 12.1811C8.11486 12.2713 7.89323 12.3194 7.66869 12.3226C7.44415 12.3257 7.22126 12.2838 7.01319 12.1993C6.80512 12.1149 6.61609 11.9896 6.45726 11.8308L1.41586 6.78942C1.11902 6.47086 0.957424 6.04952 0.965106 5.61417C0.972787 5.17881 1.14915 4.76343 1.45704 4.45554C1.76493 4.14765 2.18031 3.97129 2.61566 3.9636C3.05102 3.95592 3.47236 4.11752 3.79092 4.41436L7.61118 8.23238L14.6933 0.598285C14.9994 0.274508 15.4216 0.0855441 15.867 0.072939C16.3123 0.0603339 16.7445 0.22512 17.0684 0.531066Z" fill="url(#paint0_linear_97_1191)"/>
<defs>
<linearGradient id="paint0_linear_97_1191" x1="0.964844" y1="6.12406" x2="18.7847" y2="6.12406" gradientUnits="userSpaceOnUse">
<stop stop-color="#55C6F7"/>
<stop offset="1" stop-color="#2AF8BA"/>
</linearGradient>
</defs>
</svg>
