<svg width="58" height="56" viewBox="0 0 58 56" fill="none" xmlns="http://www.w3.org/2000/svg">
<path d="M27.0609 1.67366C27.5697 -0.3397 30.4303 -0.3397 30.9391 1.67366L34.2144 14.6357C34.5198 15.8441 35.8442 16.4819 36.9794 15.9672L49.1556 10.4463C51.0469 9.58875 52.8305 11.8252 51.5736 13.4783L43.4816 24.1208C42.7272 25.113 43.0543 26.5461 44.1645 27.1127L56.0727 33.1902C57.9224 34.1343 57.2858 36.9231 55.2097 36.9711L41.8439 37.28C40.5978 37.3088 39.6813 38.4581 39.9305 39.6794L42.6035 52.7789C43.0187 54.8136 40.4414 56.0547 39.1094 54.4615L30.5344 44.2043C29.735 43.248 28.265 43.248 27.4656 44.2043L18.8906 54.4615C17.5586 56.0547 14.9813 54.8136 15.3965 52.7789L18.0695 39.6794C18.3187 38.4581 17.4022 37.3088 16.1561 37.28L2.79027 36.9711C0.714181 36.9231 0.0776372 34.1343 1.92731 33.1902L13.8355 27.1127C14.9457 26.5461 15.2728 25.113 14.5184 24.1208L6.42643 13.4783C5.16953 11.8252 6.95308 9.58875 8.84439 10.4463L21.0206 15.9672C22.1558 16.4819 23.4802 15.8441 23.7856 14.6357L27.0609 1.67366Z" fill="#D9D9D9" fill-opacity="0.1"/>
</svg>
