<svg width="198" height="184" viewBox="0 0 198 184" fill="none" xmlns="http://www.w3.org/2000/svg">
<path d="M98.34 86.1665C116.16 86.1665 130.02 71.6465 130.02 53.8265C130.02 36.0065 115.5 22.1465 97.68 22.1465C79.86 22.1465 66 36.6665 66 53.8265C66 71.6465 80.52 86.1665 98.34 86.1665ZM97.68 35.3465C98.34 35.3465 98.34 35.3465 97.68 35.3465C108.24 35.3465 116.82 43.9265 116.82 54.4865C116.82 65.0465 108.24 72.9665 97.68 72.9665C87.12 72.9665 79.2 64.3865 79.2 54.4865C79.2 43.9265 87.78 35.3465 97.68 35.3465Z" fill="url(#paint0_linear_88_493)"/>
<path d="M196.022 82.2137C183.482 70.9937 166.982 65.0537 149.822 65.7137H144.542C143.222 70.9937 141.242 75.6137 138.602 79.5737C142.562 78.9137 145.862 78.9137 149.822 78.9137C162.362 78.2537 174.902 82.2137 184.802 89.4737V136.994H198.002V84.1937L196.022 82.2137Z" fill="url(#paint1_linear_88_493)"/>
<path d="M134.638 23.473C137.938 15.553 147.178 11.593 155.758 14.893C163.678 18.193 167.638 27.433 164.338 36.013C161.698 41.953 155.758 45.913 149.818 45.913C148.498 45.913 146.518 45.913 145.198 45.253C145.858 48.553 145.858 51.853 145.858 54.493V58.453C147.178 58.453 148.498 59.113 149.818 59.113C166.318 59.113 179.518 45.913 179.518 30.073C179.518 13.573 166.318 0.373047 150.478 0.373047C139.918 0.373047 130.678 5.65305 125.398 14.893C128.698 16.873 131.998 19.513 134.638 23.473Z" fill="url(#paint2_linear_88_493)"/>
<path d="M59.4 80.234C56.76 76.274 54.78 71.654 53.46 66.374H48.18C31.02 65.714 14.52 71.654 1.98 82.214L0 84.194V136.994H13.2V89.474C23.76 82.214 35.64 78.254 48.18 78.914C52.14 78.914 56.1 79.574 59.4 80.234Z" fill="url(#paint3_linear_88_493)"/>
<path d="M48.1793 58.4497C49.4993 58.4497 50.8193 58.4497 52.1393 57.7897V53.8297C52.1393 50.5297 52.1393 47.2297 52.7993 44.5897C51.4793 45.2497 49.4993 45.2497 48.1793 45.2497C39.5993 45.2497 32.3393 37.9897 32.3393 29.4097C32.3393 20.8297 39.5993 13.5697 48.1793 13.5697C54.7793 13.5697 60.7193 17.5297 63.3593 23.4697C65.9993 20.1697 69.9593 16.8697 73.2593 14.2297C64.6793 0.369726 46.8593 -4.25027 32.9993 4.32973C19.1393 12.9097 14.5193 30.7297 23.0993 44.5897C28.3793 53.1697 37.6193 58.4497 48.1793 58.4497Z" fill="url(#paint4_linear_88_493)"/>
<path d="M152.459 121.805L151.139 119.825C137.939 105.305 119.459 96.7251 99.6592 97.3851C79.8592 96.7251 60.7192 105.305 47.5192 119.825L46.1992 121.805V171.965C46.1992 177.905 50.8192 183.185 57.4192 183.185H141.899C147.839 183.185 153.119 177.905 153.119 171.965V121.805H152.459ZM139.259 169.985H59.3992V126.425C69.9592 115.865 84.4792 110.585 99.6592 110.585C114.179 109.925 128.699 115.865 139.259 126.425V169.985Z" fill="url(#paint5_linear_88_493)"/>
<defs>
<linearGradient id="paint0_linear_88_493" x1="66" y1="53.7727" x2="134.602" y2="53.7727" gradientUnits="userSpaceOnUse">
<stop stop-color="#55C6F7"/>
<stop offset="1" stop-color="#2AF8BA"/>
</linearGradient>
<linearGradient id="paint1_linear_88_493" x1="138.602" y1="100.901" x2="202.253" y2="100.901" gradientUnits="userSpaceOnUse">
<stop stop-color="#55C6F7"/>
<stop offset="1" stop-color="#2AF8BA"/>
</linearGradient>
<linearGradient id="paint2_linear_88_493" x1="125.398" y1="29.3909" x2="183.392" y2="29.3909" gradientUnits="userSpaceOnUse">
<stop stop-color="#55C6F7"/>
<stop offset="1" stop-color="#2AF8BA"/>
</linearGradient>
<linearGradient id="paint3_linear_88_493" x1="-2.18489e-09" y1="101.235" x2="63.6515" y2="101.235" gradientUnits="userSpaceOnUse">
<stop stop-color="#55C6F7"/>
<stop offset="1" stop-color="#2AF8BA"/>
</linearGradient>
<linearGradient id="paint4_linear_88_493" x1="18.7695" y1="28.8745" x2="77.1593" y2="28.8745" gradientUnits="userSpaceOnUse">
<stop stop-color="#55C6F7"/>
<stop offset="1" stop-color="#2AF8BA"/>
</linearGradient>
<linearGradient id="paint5_linear_88_493" x1="46.1992" y1="139.753" x2="160.772" y2="139.753" gradientUnits="userSpaceOnUse">
<stop stop-color="#55C6F7"/>
<stop offset="1" stop-color="#2AF8BA"/>
</linearGradient>
</defs>
</svg>
