<svg width="57" height="57" viewBox="0 0 57 57" fill="none" xmlns="http://www.w3.org/2000/svg">
<path d="M31.8145 42.6875C31.8145 43.3366 31.6221 43.9711 31.2615 44.5107C30.9009 45.0504 30.3884 45.471 29.7887 45.7194C29.1891 45.9678 28.5293 46.0327 27.8927 45.9061C27.2561 45.7795 26.6714 45.4669 26.2124 45.008C25.7535 44.5491 25.4409 43.9643 25.3143 43.3278C25.1877 42.6912 25.2527 42.0314 25.5011 41.4317C25.7494 40.8321 26.1701 40.3196 26.7097 39.959C27.2494 39.5984 27.8839 39.4059 28.5329 39.4059C29.4032 39.4059 30.2379 39.7517 30.8534 40.3671C31.4688 40.9825 31.8145 41.8172 31.8145 42.6875ZM28.5329 13.1529C22.5002 13.1529 17.5941 17.5694 17.5941 22.9978V24.0916C17.5941 24.6719 17.8246 25.2283 18.2349 25.6386C18.6452 26.0489 19.2017 26.2794 19.7819 26.2794C20.3621 26.2794 20.9186 26.0489 21.3289 25.6386C21.7391 25.2283 21.9696 24.6719 21.9696 24.0916V22.9978C21.9696 19.9896 24.9149 17.5284 28.5329 17.5284C32.1509 17.5284 35.0962 19.9896 35.0962 22.9978C35.0962 26.0059 32.1509 28.4672 28.5329 28.4672C27.9527 28.4672 27.3962 28.6976 26.9859 29.1079C26.5756 29.5182 26.3451 30.0747 26.3451 30.6549V32.8427C26.3451 33.4229 26.5756 33.9794 26.9859 34.3896C27.3962 34.7999 27.9527 35.0304 28.5329 35.0304C29.1131 35.0304 29.6696 34.7999 30.0799 34.3896C30.4902 33.9794 30.7207 33.4229 30.7207 32.8427V32.6458C35.7087 31.7296 39.4717 27.7507 39.4717 22.9978C39.4717 17.5694 34.5656 13.1529 28.5329 13.1529ZM56.9737 28.4672C56.9737 34.0922 55.3057 39.5909 52.1805 44.268C49.0554 48.9451 44.6136 52.5904 39.4167 54.743C34.2198 56.8956 28.5014 57.4588 22.9844 56.3615C17.4674 55.2641 12.3997 52.5553 8.42223 48.5778C4.44471 44.6003 1.73599 39.5326 0.638597 34.0157C-0.458797 28.4987 0.104425 22.7802 2.25704 17.5833C4.40966 12.3865 8.05498 7.94462 12.732 4.8195C17.4091 1.69439 22.9078 0.0263672 28.5329 0.0263672C36.0734 0.0343301 43.3028 3.03332 48.6348 8.36527C53.9667 13.6972 56.9657 20.9266 56.9737 28.4672ZM52.5982 28.4672C52.5982 23.7075 51.1868 19.0547 48.5424 15.0972C45.8981 11.1397 42.1396 8.05518 37.7423 6.23373C33.3449 4.41229 28.5062 3.93572 23.838 4.86428C19.1698 5.79284 14.8818 8.08484 11.5162 11.4504C8.15059 14.816 5.85859 19.104 4.93003 23.7722C4.00146 28.4405 4.47804 33.2792 6.29948 37.6765C8.12092 42.0739 11.2054 45.8324 15.1629 48.4767C19.1205 51.121 23.7732 52.5324 28.5329 52.5324C34.9132 52.5252 41.0301 49.9874 45.5416 45.4759C50.0532 40.9643 52.5909 34.8474 52.5982 28.4672Z" fill="url(#paint0_linear_127_2430)"/>
<defs>
<linearGradient id="paint0_linear_127_2430" x1="0.092102" y1="28.1262" x2="61.0449" y2="28.1262" gradientUnits="userSpaceOnUse">
<stop stop-color="#55C6F7"/>
<stop offset="1" stop-color="#2AF8BA"/>
</linearGradient>
</defs>
</svg>
