<svg width="54" height="50" viewBox="0 0 54 50" fill="none" xmlns="http://www.w3.org/2000/svg">
<path d="M27.0704 23.4516C31.8807 23.4516 35.6221 19.5321 35.6221 14.7218C35.6221 9.91152 31.7025 6.17017 26.8922 6.17017C22.0819 6.17017 18.3406 10.0897 18.3406 14.7218C18.3406 19.5321 22.2601 23.4516 27.0704 23.4516ZM26.8922 9.73336C27.0704 9.73336 27.0704 9.73336 26.8922 9.73336C29.7428 9.73336 32.0589 12.0494 32.0589 14.9C32.0589 17.7505 29.7428 19.8885 26.8922 19.8885C24.0417 19.8885 21.9038 17.5724 21.9038 14.9C21.9038 12.0494 24.2198 9.73336 26.8922 9.73336Z" fill="url(#paint0_linear_127_2420)"/>
<path d="M53.4373 22.3851C50.0522 19.3564 45.5982 17.753 40.9661 17.9311H39.5408C39.1845 19.3564 38.65 20.6035 37.9374 21.6725C39.0063 21.4943 39.8971 21.4943 40.9661 21.4943C44.3511 21.3162 47.7362 22.3851 50.4086 24.3449V37.1724H53.9717V22.9196L53.4373 22.3851Z" fill="url(#paint1_linear_127_2420)"/>
<path d="M36.8697 6.52758C37.7605 4.38966 40.2548 3.32071 42.5708 4.2115C44.7087 5.1023 45.7777 7.59654 44.8869 9.91261C44.1743 11.516 42.5708 12.585 40.9674 12.585C40.6111 12.585 40.0766 12.585 39.7203 12.4068C39.8984 13.2976 39.8984 14.1884 39.8984 14.9011V15.97C40.2548 15.97 40.6111 16.1482 40.9674 16.1482C45.4214 16.1482 48.9846 12.585 48.9846 8.30918C48.9846 3.85519 45.4214 0.291992 41.1456 0.291992C38.295 0.291992 35.8008 1.71727 34.3755 4.2115C35.2663 4.74598 36.1571 5.45862 36.8697 6.52758Z" fill="url(#paint2_linear_127_2420)"/>
<path d="M16.559 21.85C15.8464 20.781 15.3119 19.5339 14.9556 18.1086H13.5303C8.89816 17.9305 4.44417 19.5339 1.05914 22.3845L0.524658 22.919V37.1717H4.08785V24.3442C6.93841 22.3845 10.1453 21.3155 13.5303 21.4937C14.5993 21.4937 15.6682 21.6718 16.559 21.85Z" fill="url(#paint3_linear_127_2420)"/>
<path d="M13.5336 15.9697C13.8899 15.9697 14.2462 15.9697 14.6025 15.7916V14.7226C14.6025 13.8318 14.6025 12.941 14.7807 12.2284C14.4244 12.4066 13.8899 12.4066 13.5336 12.4066C11.2175 12.4066 9.25772 10.4468 9.25772 8.13072C9.25772 5.81465 11.2175 3.85489 13.5336 3.85489C15.3152 3.85489 16.9186 4.92385 17.6312 6.52729C18.3439 5.63649 19.4128 4.74569 20.3036 4.03305C17.9875 0.291698 13.1772 -0.95542 9.43588 1.36066C5.69453 3.67673 4.44741 8.48704 6.76349 12.2284C8.18877 14.5445 10.683 15.9697 13.5336 15.9697Z" fill="url(#paint4_linear_127_2420)"/>
<path d="M41.6781 33.072L41.3218 32.5375C37.7586 28.618 32.7701 26.3019 27.4253 26.48C22.0805 26.3019 16.9139 28.618 13.3507 32.5375L12.9944 33.072V46.6121C12.9944 48.2155 14.2415 49.6408 16.0231 49.6408H38.8275C40.431 49.6408 41.8562 48.2155 41.8562 46.6121V33.072H41.6781ZM38.1149 46.0776H16.5576V34.3191C19.4081 31.4685 23.3276 30.0432 27.4253 30.0432C31.3448 29.8651 35.2643 31.4685 38.1149 34.3191V46.0776Z" fill="url(#paint5_linear_127_2420)"/>
<defs>
<linearGradient id="paint0_linear_127_2420" x1="18.3406" y1="14.7073" x2="36.859" y2="14.7073" gradientUnits="userSpaceOnUse">
<stop stop-color="#55C6F7"/>
<stop offset="1" stop-color="#2AF8BA"/>
</linearGradient>
<linearGradient id="paint1_linear_127_2420" x1="37.9374" y1="27.4296" x2="55.1194" y2="27.4296" gradientUnits="userSpaceOnUse">
<stop stop-color="#55C6F7"/>
<stop offset="1" stop-color="#2AF8BA"/>
</linearGradient>
<linearGradient id="paint2_linear_127_2420" x1="34.3755" y1="8.12504" x2="50.0302" y2="8.12504" gradientUnits="userSpaceOnUse">
<stop stop-color="#55C6F7"/>
<stop offset="1" stop-color="#2AF8BA"/>
</linearGradient>
<linearGradient id="paint3_linear_127_2420" x1="0.524658" y1="27.5191" x2="17.7067" y2="27.5191" gradientUnits="userSpaceOnUse">
<stop stop-color="#55C6F7"/>
<stop offset="1" stop-color="#2AF8BA"/>
</linearGradient>
<linearGradient id="paint4_linear_127_2420" x1="5.59473" y1="7.98623" x2="21.3564" y2="7.98623" gradientUnits="userSpaceOnUse">
<stop stop-color="#55C6F7"/>
<stop offset="1" stop-color="#2AF8BA"/>
</linearGradient>
<linearGradient id="paint5_linear_127_2420" x1="12.9944" y1="37.9167" x2="43.922" y2="37.9167" gradientUnits="userSpaceOnUse">
<stop stop-color="#55C6F7"/>
<stop offset="1" stop-color="#2AF8BA"/>
</linearGradient>
</defs>
</svg>
