<svg width="1440" height="925" viewBox="0 0 1440 925" fill="none" xmlns="http://www.w3.org/2000/svg">
<g clip-path="url(#clip0_80_212)">
<rect width="1440" height="925" fill="#1D1D1D"/>
<g filter="url(#filter0_f_80_212)">
<ellipse cx="156.538" cy="903.67" rx="252.822" ry="250.816" transform="rotate(-27.214 156.538 903.67)" fill="url(#paint0_linear_80_212)" fill-opacity="0.75"/>
</g>
<g filter="url(#filter1_f_80_212)">
<ellipse cx="672.484" cy="927.477" rx="293.735" ry="291.404" transform="rotate(-27.214 672.484 927.477)" fill="#52C8F3"/>
</g>
<g filter="url(#filter2_f_80_212)">
<ellipse cx="1241.54" cy="936.67" rx="252.822" ry="250.816" transform="rotate(-27.214 1241.54 936.67)" fill="url(#paint1_linear_80_212)"/>
</g>
<rect x="1115" width="231" height="311" rx="20" fill="url(#paint2_linear_80_212)"/>
<rect x="852" y="166" width="231" height="317" rx="20" fill="white"/>
<path d="M968 242C955.27 242 943.061 247.057 934.059 256.059C925.057 265.061 920 277.27 920 290C920 292.546 921.011 294.988 922.812 296.788C924.612 298.589 927.054 299.6 929.6 299.6C932.146 299.6 934.588 298.589 936.388 296.788C938.189 294.988 939.2 292.546 939.2 290C939.2 274.083 952.083 261.2 968 261.2C983.917 261.2 996.8 274.083 996.8 290C996.8 297.834 994.89 302.422 992.595 305.638C990.08 309.142 986.595 311.763 981.766 315.094L980.653 315.843C976.362 318.781 970.832 322.554 966.55 327.814C961.491 334.035 958.4 341.898 958.4 352.4V357.2C958.4 359.746 959.411 362.188 961.212 363.988C963.012 365.789 965.454 366.8 968 366.8C970.546 366.8 972.988 365.789 974.788 363.988C976.589 362.188 977.6 359.746 977.6 357.2V352.4C977.6 346.102 979.309 342.57 981.44 339.93C983.907 336.915 987.229 334.63 992.134 331.261L992.643 330.906C997.405 327.642 1003.52 323.36 1008.2 316.813C1013.12 309.978 1016 301.357 1016 290C1016 277.27 1010.94 265.061 1001.94 256.059C992.939 247.057 980.73 242 968 242ZM968 407.6C971.183 407.6 974.235 406.336 976.485 404.085C978.736 401.835 980 398.783 980 395.6C980 392.417 978.736 389.365 976.485 387.115C974.235 384.864 971.183 383.6 968 383.6C964.817 383.6 961.765 384.864 959.515 387.115C957.264 389.365 956 392.417 956 395.6C956 398.783 957.264 401.835 959.515 404.085C961.765 406.336 964.817 407.6 968 407.6Z" fill="url(#paint3_linear_80_212)"/>
<rect x="852" y="759" width="231" height="284" rx="20" fill="white"/>
<path d="M968 818C955.27 818 943.061 823.057 934.059 832.059C925.057 841.061 920 853.27 920 866C920 868.546 921.011 870.988 922.812 872.788C924.612 874.589 927.054 875.6 929.6 875.6C932.146 875.6 934.588 874.589 936.388 872.788C938.189 870.988 939.2 868.546 939.2 866C939.2 850.083 952.083 837.2 968 837.2C983.917 837.2 996.8 850.083 996.8 866C996.8 873.834 994.89 878.422 992.595 881.638C990.08 885.142 986.595 887.763 981.766 891.094L980.653 891.843C976.362 894.781 970.832 898.554 966.55 903.814C961.491 910.035 958.4 917.898 958.4 928.4V933.2C958.4 935.746 959.411 938.188 961.212 939.988C963.012 941.789 965.454 942.8 968 942.8C970.546 942.8 972.988 941.789 974.788 939.988C976.589 938.188 977.6 935.746 977.6 933.2V928.4C977.6 922.102 979.309 918.57 981.44 915.93C983.907 912.915 987.229 910.63 992.134 907.261L992.643 906.906C997.405 903.642 1003.52 899.36 1008.2 892.813C1013.12 885.978 1016 877.357 1016 866C1016 853.27 1010.94 841.061 1001.94 832.059C992.939 823.057 980.73 818 968 818ZM968 983.6C971.183 983.6 974.235 982.336 976.485 980.085C978.736 977.835 980 974.783 980 971.6C980 968.417 978.736 965.365 976.485 963.115C974.235 960.864 971.183 959.6 968 959.6C964.817 959.6 961.765 960.864 959.515 963.115C957.264 965.365 956 968.417 956 971.6C956 974.783 957.264 977.835 959.515 980.085C961.765 982.336 964.817 983.6 968 983.6Z" fill="#1D1D1D"/>
<rect x="1115" y="343" width="231" height="284" rx="20" fill="white"/>
<path d="M1231 402C1218.27 402 1206.06 407.057 1197.06 416.059C1188.06 425.061 1183 437.27 1183 450C1183 452.546 1184.01 454.988 1185.81 456.788C1187.61 458.589 1190.05 459.6 1192.6 459.6C1195.15 459.6 1197.59 458.589 1199.39 456.788C1201.19 454.988 1202.2 452.546 1202.2 450C1202.2 434.083 1215.08 421.2 1231 421.2C1246.92 421.2 1259.8 434.083 1259.8 450C1259.8 457.834 1257.89 462.422 1255.6 465.638C1253.08 469.142 1249.6 471.763 1244.77 475.094L1243.65 475.843C1239.36 478.781 1233.83 482.554 1229.55 487.814C1224.49 494.035 1221.4 501.898 1221.4 512.4V517.2C1221.4 519.746 1222.41 522.188 1224.21 523.988C1226.01 525.789 1228.45 526.8 1231 526.8C1233.55 526.8 1235.99 525.789 1237.79 523.988C1239.59 522.188 1240.6 519.746 1240.6 517.2V512.4C1240.6 506.102 1242.31 502.57 1244.44 499.93C1246.91 496.915 1250.23 494.63 1255.13 491.261L1255.64 490.906C1260.4 487.642 1266.52 483.36 1271.2 476.813C1276.12 469.978 1279 461.357 1279 450C1279 437.27 1273.94 425.061 1264.94 416.059C1255.94 407.057 1243.73 402 1231 402ZM1231 567.6C1234.18 567.6 1237.23 566.336 1239.49 564.085C1241.74 561.835 1243 558.783 1243 555.6C1243 552.417 1241.74 549.365 1239.49 547.115C1237.23 544.864 1234.18 543.6 1231 543.6C1227.82 543.6 1224.77 544.864 1222.51 547.115C1220.26 549.365 1219 552.417 1219 555.6C1219 558.783 1220.26 561.835 1222.51 564.085C1224.77 566.336 1227.82 567.6 1231 567.6Z" fill="#1D1D1D"/>
<rect x="1115" y="805" width="231" height="284" rx="20" fill="white"/>
<path d="M1231 864C1218.27 864 1206.06 869.057 1197.06 878.059C1188.06 887.061 1183 899.27 1183 912C1183 914.546 1184.01 916.988 1185.81 918.788C1187.61 920.589 1190.05 921.6 1192.6 921.6C1195.15 921.6 1197.59 920.589 1199.39 918.788C1201.19 916.988 1202.2 914.546 1202.2 912C1202.2 896.083 1215.08 883.2 1231 883.2C1246.92 883.2 1259.8 896.083 1259.8 912C1259.8 919.834 1257.89 924.422 1255.6 927.638C1253.08 931.142 1249.6 933.763 1244.77 937.094L1243.65 937.843C1239.36 940.781 1233.83 944.554 1229.55 949.814C1224.49 956.035 1221.4 963.898 1221.4 974.4V979.2C1221.4 981.746 1222.41 984.188 1224.21 985.988C1226.01 987.789 1228.45 988.8 1231 988.8C1233.55 988.8 1235.99 987.789 1237.79 985.988C1239.59 984.188 1240.6 981.746 1240.6 979.2V974.4C1240.6 968.102 1242.31 964.57 1244.44 961.93C1246.91 958.915 1250.23 956.63 1255.13 953.261L1255.64 952.906C1260.4 949.642 1266.52 945.36 1271.2 938.813C1276.12 931.978 1279 923.357 1279 912C1279 899.27 1273.94 887.061 1264.94 878.059C1255.94 869.057 1243.73 864 1231 864ZM1231 1029.6C1234.18 1029.6 1237.23 1028.34 1239.49 1026.09C1241.74 1023.83 1243 1020.78 1243 1017.6C1243 1014.42 1241.74 1011.37 1239.49 1009.11C1237.23 1006.86 1234.18 1005.6 1231 1005.6C1227.82 1005.6 1224.77 1006.86 1222.51 1009.11C1220.26 1011.37 1219 1014.42 1219 1017.6C1219 1020.78 1220.26 1023.83 1222.51 1026.09C1224.77 1028.34 1227.82 1029.6 1231 1029.6Z" fill="url(#paint4_linear_80_212)"/>
<rect x="852" y="515" width="231" height="212" rx="20" fill="#51C9F1"/>
<rect x="1115" y="659" width="231" height="114" rx="20" fill="#2DF3BF"/>
<rect x="-1" width="1455" height="947" fill="url(#paint5_linear_80_212)" fill-opacity="0.62"/>
<line x1="2.62268e-07" y1="-1" x2="1441" y2="-0.999874" stroke="url(#paint6_linear_80_212)" stroke-width="6"/>
</g>
<defs>
<filter id="filter0_f_80_212" x="-370.62" y="377.681" width="1054.32" height="1051.98" filterUnits="userSpaceOnUse" color-interpolation-filters="sRGB">
<feFlood flood-opacity="0" result="BackgroundImageFix"/>
<feBlend mode="normal" in="SourceGraphic" in2="BackgroundImageFix" result="shape"/>
<feGaussianBlur stdDeviation="137.35" result="effect1_foregroundBlur_80_212"/>
</filter>
<filter id="filter1_f_80_212" x="104.472" y="360.823" width="1136.02" height="1133.31" filterUnits="userSpaceOnUse" color-interpolation-filters="sRGB">
<feFlood flood-opacity="0" result="BackgroundImageFix"/>
<feBlend mode="normal" in="SourceGraphic" in2="BackgroundImageFix" result="shape"/>
<feGaussianBlur stdDeviation="137.35" result="effect1_foregroundBlur_80_212"/>
</filter>
<filter id="filter2_f_80_212" x="714.38" y="410.681" width="1054.32" height="1051.98" filterUnits="userSpaceOnUse" color-interpolation-filters="sRGB">
<feFlood flood-opacity="0" result="BackgroundImageFix"/>
<feBlend mode="normal" in="SourceGraphic" in2="BackgroundImageFix" result="shape"/>
<feGaussianBlur stdDeviation="137.35" result="effect1_foregroundBlur_80_212"/>
</filter>
<linearGradient id="paint0_linear_80_212" x1="-96.2844" y1="900.663" x2="445.551" y2="900.663" gradientUnits="userSpaceOnUse">
<stop stop-color="#55C6F7"/>
<stop offset="1" stop-color="#2AF8BA"/>
</linearGradient>
<linearGradient id="paint1_linear_80_212" x1="988.716" y1="933.663" x2="1530.55" y2="933.663" gradientUnits="userSpaceOnUse">
<stop stop-color="#55C6F7"/>
<stop offset="1" stop-color="#2AF8BA"/>
</linearGradient>
<linearGradient id="paint2_linear_80_212" x1="1115" y1="153.636" x2="1362.53" y2="153.636" gradientUnits="userSpaceOnUse">
<stop stop-color="#55C6F7"/>
<stop offset="1" stop-color="#2AF8BA"/>
</linearGradient>
<linearGradient id="paint3_linear_80_212" x1="920" y1="323.807" x2="1022.87" y2="323.807" gradientUnits="userSpaceOnUse">
<stop stop-color="#55C6F7"/>
<stop offset="1" stop-color="#2AF8BA"/>
</linearGradient>
<linearGradient id="paint4_linear_80_212" x1="1183" y1="945.807" x2="1285.87" y2="945.807" gradientUnits="userSpaceOnUse">
<stop stop-color="#55C6F7"/>
<stop offset="1" stop-color="#2AF8BA"/>
</linearGradient>
<linearGradient id="paint5_linear_80_212" x1="726.5" y1="0" x2="726.5" y2="947" gradientUnits="userSpaceOnUse">
<stop offset="0.104167" stop-color="#1D1D1D"/>
<stop offset="1" stop-opacity="0"/>
</linearGradient>
<linearGradient id="paint6_linear_80_212" x1="0" y1="2" x2="1441" y2="2" gradientUnits="userSpaceOnUse">
<stop stop-color="#52C8F3"/>
<stop offset="1" stop-color="#2EF1C1"/>
</linearGradient>
<clipPath id="clip0_80_212">
<rect width="1440" height="925" fill="white"/>
</clipPath>
</defs>
</svg>
